<?xml version="1.0" encoding="utf-8"?>
<!-- Generator: Fusion 360, Shaper Origin Export Add-In, Version 1.6.2  -->
<svg xmlns="http://www.w3.org/2000/svg" xmlns:xlink="http://www.w3.org/1999/xlink" xmlns:shaper="http://www.shapertools.com/namespaces/shaper" shaper:fusionaddin="version:1.6.2" width="11.46cm" height="11.26cm" version="1.1" x="0cm" y="0cm" viewBox="0 0 11.46 11.26" enable-background="new 0 0 11.46 11.26" xml:space="preserve"><path d="M-0.38,10.86 L-0.38,0.38 A0.38,0.38 180 0,1 -0,-0 L10.7,-0 A0.38,0.38 270 0,1 11.08,0.38 L11.08,7.8804002 A0.25,0.25 0 0,1 10.84,8.1302001 A0.25,0.25 267.7075572 0,0 10.6,8.38 L10.6,10.88 A0.38,0.38 0 0,1 10.22,11.26 L0.02,11.26 A0.4,0.4 90 0,1 -0.38,10.86z" transform="matrix(1,0,0,-1,0.38,11.26)" fill="rgb(0,0,0)" shaper:cutDepth="0.001" stroke-linecap="round" stroke-linejoin="round" /></svg>