<?xml version="1.0" encoding="utf-8"?>
<!-- Generator: Fusion 360, Shaper Origin Export Add-In, Version 1.6.2  -->
<svg xmlns="http://www.w3.org/2000/svg" xmlns:xlink="http://www.w3.org/1999/xlink" xmlns:shaper="http://www.shapertools.com/namespaces/shaper" shaper:fusionaddin="version:1.6.2" width="5.9499602cm" height="3.3cm" version="1.1" x="0cm" y="0cm" viewBox="0 0 5.9499602 3.3" enable-background="new 0 0 5.9499602 3.3" xml:space="preserve"><path d="M0,0 L5.7499602,0 A0.1,0.1 270 0,1 5.8499602,0.1 L5.8499602,3.2 A0.1,0.1 0 0,1 5.7499602,3.3 L0,3.3 A0.1,0.1 90 0,1 -0.1,3.2 L-0.1,0.1 A0.1,0.1 180 0,1 -0,0z" transform="matrix(1,0,0,-1,0.1,3.3)" fill="rgb(0,0,0)" shaper:cutDepth="0.001" stroke-linecap="round" stroke-linejoin="round" /><path d="M5.6682741,1.7 L5.6682741,1.7 5.6679154,1.7288676 5.6668418,1.7577167 5.6650568,1.7865303 5.6625637,1.8152914 5.6593663,1.843983 5.6554679,1.8725883 5.6508721,1.9010902 5.6455823,1.9294718 5.6396021,1.9577161 5.632935,1.9858061 5.6255844,2.013725 5.617554,2.0414556 5.6088471,2.0689812 5.5994673,2.0962846 5.5894181,2.1233489 5.578703,2.1501573 5.5673258,2.1766925 5.5552941,2.202937 5.542618,2.2288761 5.5293071,2.2544954 5.5153714,2.2797806 5.5008205,2.3047175 5.4856643,2.3292917 5.4699126,2.3534889 5.4535751,2.3772949 5.4366616,2.4006953 5.419182,2.4236758 5.401146,2.4462222 5.3825633,2.4683201 5.3634439,2.4899552 5.3437974,2.5111133 5.3236337,2.53178 5.3029634,2.551941 5.281801,2.5715844 5.260161,2.5907003 5.2380577,2.6092789 5.2155053,2.6273106 5.1925183,2.6447855 5.169111,2.6616938 5.1452977,2.6780259 5.1210927,2.693772 5.0965104,2.7089222 5.0715651,2.7234669 5.0462712,2.7373963 5.0206429,2.7507007 4.9946946,2.7633702 4.9684407,2.7753951 4.941896,2.7867572 4.9150773,2.7974446 4.8880018,2.8074558 4.8606866,2.8167893 4.8331489,2.8254437 4.8054058,2.8334175 4.7774744,2.8407092 4.7493718,2.8473175 4.7211153,2.8532407 4.692722,2.8584775 4.664209,2.8630264 4.6355934,2.8668859 4.6068924,2.8700545 4.5781231,2.8725309 4.5493027,2.8743135 4.5204483,2.8754008 4.4915771,2.8757915 4.4627062,2.875484 4.4338527,2.8744768 4.4050338,2.8727686 4.3762666,2.8703578 4.3475682,2.867243 4.3189559,2.8634227 4.2904467,2.8588955 4.2620578,2.8536598 4.2338064,2.8477143 4.2057095,2.8410574 4.1777881,2.8336927 4.1500629,2.8256316 4.1225488,2.8168831 4.0952606,2.8074558 4.0682132,2.7973587 4.0414212,2.7866005 4.0148997,2.7751901 3.9886634,2.7631362 3.9627271,2.7504478 3.9371056,2.7371335 3.9118139,2.7232023 3.8868666,2.708663 3.8622787,2.6935243 3.8380649,2.6777951 3.8142402,2.6614841 3.7908192,2.6446003 3.7678169,2.6271525 3.7452481,2.6091494 3.7231275,2.5905998 3.7014701,2.5715126 3.6802906,2.5518967 3.6596038,2.5317607 3.6394247,2.5111136 3.6197681,2.4899647 3.6006475,2.4683314 3.5820718,2.4462306 3.5640492,2.4236775 3.5465879,2.4006873 3.529696,2.3772752 3.5133818,2.3534564 3.4976534,2.3292463 3.482519,2.3046599 3.4679868,2.2797126 3.4540649,2.2544195 3.4407616,2.2287959 3.4280849,2.202857 3.4160432,2.176618 3.4046445,2.1500942 3.393897,2.1233008 3.383809,2.0962529 3.3743886,2.068966 3.365644,2.041455 3.3575833,2.0137354 3.3502148,1.9858222 3.3435451,1.9577329 3.3375755,1.9294878 3.3323062,1.9011042 3.3277376,1.8725996 3.32387,1.8439912 3.3207039,1.8152963 3.3182397,1.7865323 3.3164776,1.7577163 3.3154181,1.7288658 3.3150616,1.6999981 3.3154084,1.6711304 3.3164589,1.64228 3.3182134,1.6134643 3.3206725,1.5847006 3.3238363,1.5560061 3.3277053,1.5273982 3.3322799,1.4988942 3.3375605,1.4705114 3.3435449,1.4422681 3.3502262,1.414182 3.3575978,1.3862693 3.3656531,1.358546 3.3743856,1.331028 3.3837886,1.3037315 3.3938557,1.2766725 3.4045803,1.2498669 3.4159558,1.2233309 3.4279755,1.1970805 3.4406331,1.1711318 3.4539219,1.1455007 3.4678352,1.1202033 3.4823667,1.0952556 3.4975096,1.0706737 3.5132582,1.0464748 3.5296094,1.0226839 3.5465516,0.9993145 3.5640713,0.9763772 3.5821549,0.9538827 3.6007888,0.9318414 3.6199595,0.9102641 3.6396534,0.8891613 3.6598569,0.8685436 3.6805565,0.8484215 3.7017387,0.8288058 3.7233898,0.8097069 3.7454963,0.7911355 3.7680447,0.7731022 3.7910213,0.7556175 3.8144127,0.7386921 3.8382052,0.7223365 3.8623854,0.7065614 3.8869396,0.6913773 3.9118542,0.6767948 3.9371158,0.6628246 3.9627107,0.6494771 3.9886255,0.6367631 4.0148464,0.6246931 4.0413601,0.6132776 4.0681528,0.6025274 4.0952112,0.5924529 4.1225187,0.5830629 4.1500506,0.5743573 4.1777892,0.5663373 4.2057171,0.5590045 4.2338171,0.5523605 4.2620721,0.5464068 4.2904647,0.541145 4.3189778,0.5365768 4.3475941,0.5327036 4.3762965,0.529527 4.4050677,0.5270487 4.4338904,0.5252701 4.4627475,0.5241929 4.4916218,0.5238187 4.520496,0.5241489 4.5493529,0.5251852 4.5781752,0.5269291 4.6069459,0.5293823 4.6356475,0.5325462 4.664263,0.5364225 4.6927743,0.5410103 4.7211629,0.5463016 4.7494122,0.5522906 4.7775059,0.5589716 4.8054276,0.5663389 4.833161,0.5743868 4.8606896,0.5831096 4.8879971,0.5925016 4.9150671,0.6025572 4.9418833,0.6132706 4.9684292,0.6246362 4.9946885,0.6366483 5.0206447,0.6493011 5.0462816,0.6625889 5.0715828,0.6765062 5.0965285,0.6910486 5.1211014,0.706208 5.1452892,0.7219722 5.1690797,0.7383289 5.1924606,0.755266 5.2154196,0.7727714 5.2379447,0.7908328 5.2600234,0.809438 5.2816436,0.828575 5.302793,0.8482314 5.3234594,0.8683951 5.3436305,0.889054 5.3632941,0.9101958 5.3824379,0.9318084 5.4010497,0.9538796 5.4191173,0.9763973 5.4366283,0.9993491 5.4535707,1.022723 5.469932,1.0465068 5.4857002,1.0706882 5.5008628,1.0952552 5.5154078,1.1201953 5.5293231,1.1454908 5.5426031,1.1711234 5.5552432,1.1970765 5.567239,1.2233334 5.578586,1.2498773 5.5892798,1.2766916 5.5993159,1.3037596 5.6086899,1.3310646 5.6173973,1.3585898 5.6254337,1.3863187 5.6327946,1.4142344 5.6394757,1.4423204 5.6454723,1.47056 5.6507801,1.4989363 5.6553947,1.5274328 5.6593115,1.5560327 5.6625262,1.5847195 5.6650342,1.6134762 5.6668312,1.6422864 5.6679126,1.6711332 5.6682741,1.7z" transform="matrix(1,0,0,-1,0.1,3.3)" fill="rgb(255,255,255)" stroke="rgb(0,0,0)" stroke-width="0.0010cm" stroke-linecap="round" stroke-linejoin="round" shaper:cutDepth="0.001" /></svg>