<?xml version="1.0" encoding="utf-8"?>
<!-- Generator: Fusion 360, Shaper Origin Export Add-In, Version 1.6.10  -->
<svg xmlns="http://www.w3.org/2000/svg" xmlns:xlink="http://www.w3.org/1999/xlink" xmlns:shaper="http://www.shapertools.com/namespaces/shaper" shaper:fusionaddin="version:1.6.10" width="3.9494823cm" height="3.9509974cm" version="1.1" x="0cm" y="0cm" viewBox="0 0 3.9494823 3.9509974" enable-background="new 0 0 3.9494823 3.9509974" xml:space="preserve"><path d="M-1.5766676,-1.2174275 A2,2 271.2764606 0,1 0.3716509,0.9507844 L0.3716509,0.9507844 0.3666669,0.9974409 0.3605786,1.043922 0.353391,1.0902085 0.3451091,1.1362813 0.3357381,1.1821212 0.325283,1.2277092 0.313749,1.273026 0.3011411,1.3180525 0.2874643,1.3627697 0.2727238,1.4071582 0.2569246,1.4511991 0.2400719,1.4948731 0.2221707,1.5381612 0.203226,1.5810441 0.1832431,1.6235028 0.1622291,1.6655137 0.1402298,1.7069823 0.1172702,1.7478643 0.0933613,1.7881438 0.0685139,1.827805 0.0427392,1.8668317 0.0160481,1.9052082 -0.0115485,1.9429185 -0.0400395,1.9799466 -0.0694139,2.0162767 -0.0996607,2.0518928 -0.1307691,2.0867789 -0.1627278,2.1209193 -0.1955261,2.1542978 -0.2291528,2.1868986 -0.263597,2.2187058 -0.2988478,2.2497034 -0.2988478,2.2497034 -0.3355415,2.2804427 -0.3729397,2.3102999 -0.4110246,2.339261 -0.4497784,2.3673116 -0.4891833,2.3944375 -0.5292216,2.4206246 -0.5698756,2.4458586 -0.6111274,2.4701253 -0.6529594,2.4934104 -0.6953537,2.5156999 -0.7382926,2.5369794 -0.7817583,2.5572347 -0.8257267,2.5764493 -0.870116,2.5945884 -0.9148897,2.6116405 -0.9600275,2.6276004 -1.0055091,2.6424632 -1.0513141,2.6562238 -1.0974221,2.6688771 -1.1438127,2.6804183 -1.1904656,2.6908421 -1.2373604,2.7001436 -1.2844768,2.7083178 -1.3317943,2.7153595 -1.3792926,2.7212639 -1.4269514,2.7260257 -1.4747502,2.7296401 -1.5226682,2.7321019 -1.5706706,2.7334059 -1.6187195,2.7335475 -1.6667792,2.7325224 -1.7148108,2.7303266 -1.7627389,2.7269638 -1.8105272,2.7224397 -1.8581547,2.7167595 -1.9056004,2.7099282 -1.9528434,2.7019508 -1.9998628,2.6928323 -2.0466377,2.6825777 -2.0931471,2.671192 -2.1393701,2.6586803 -2.1852858,2.6450475 -2.2308732,2.6302986 -2.2761114,2.6144388 -2.3209795,2.5974729 -2.3654565,2.5794061 -2.4095216,2.5602433 -2.4531313,2.5400002 -2.4962202,2.5187064 -2.5387676,2.4963728 -2.5807544,2.4730095 -2.622161,2.4486267 -2.6629682,2.4232347 -2.7031566,2.3968437 -2.742707,2.3694639 -2.7815841,2.341118 -2.8197396,2.3118425 -2.8571563,2.2816525 -2.8938179,2.2505623 -2.929708,2.2185863 -2.9648104,2.185739 -2.9991085,2.1520347 -3.0325861,2.1174879 -3.0652054,2.0821366 -3.0969149,2.0460391 -3.1277031,2.0092144 -3.1575589,1.9716806 -3.1864713,1.9334557 -3.2144294,1.8945578 -3.2414222,1.8550049 -3.2674388,1.8148153 -3.292468,1.7740069 -3.316499,1.7325979 -3.3395209,1.6906063 -3.3615225,1.6480502 -3.382493,1.6049477 -3.4024214,1.5613169 -3.4212966,1.5171759 -3.4391078,1.4725427 -3.4558405,1.4274453 -3.4714634,1.3819648 -3.485967,1.3361333 -3.4993458,1.2899715 -3.5115943,1.2435006 -3.5227071,1.1967415 -3.5326787,1.1497153 -3.5415038,1.1024429 -3.5491746,1.0549569 -3.5556774,1.0073432 -3.5610118,0.9596334 -3.5651797,0.9118492 -3.568183,0.8640121 -3.5700235,0.8161439 -3.5707031,0.7682661 -3.5702236,0.7204003 -3.568587,0.6725682 -3.5657949,0.6247914 -3.5618494,0.5770916 -3.5567522,0.5294903 -3.5505052,0.4820092 -3.5431103,0.4346698 -3.5345693,0.387494 -3.524884,0.3405032 -3.5140569,0.2937212 -3.5021091,0.2472439 -3.4890578,0.2011264 -3.4749122,0.1553859 -3.4596819,0.1100396 -3.4433762,0.0651049 -3.4260043,0.020599 -3.4075757,-0.0234609 -3.3880998,-0.0670574 -3.3675858,-0.1101733 -3.3460432,-0.1527912 -3.3234812,-0.1948941 -3.2999093,-0.2364645 -3.2753368,-0.2774851 -3.2497731,-0.3179389 -3.2232275,-0.3578083 -3.1957094,-0.3970763 -3.1672433,-0.4357053 -3.1378771,-0.4736311 -3.1076265,-0.5108368 -3.0765053,-0.5473079 -3.0445275,-0.5830295 -3.011707,-0.6179871 -2.9780578,-0.6521658 -2.9435938,-0.6855511 -2.9435938,-0.6855511 -2.9089569,-0.7175203 -2.8735789,-0.7486014 -2.8374785,-0.7787844 -2.8006744,-0.8080595 -2.7631854,-0.8364165 -2.7250302,-0.8638454 -2.6862275,-0.8903363 -2.6467961,-0.9158791 -2.6067546,-0.940464 -2.5661219,-0.9640807 -2.5249166,-0.9867194 -2.4831574,-1.00837 -2.4408727,-1.0290181 -2.3981367,-1.0486289 -2.3549775,-1.0671929 -2.3114144,-1.0847045 -2.2674667,-1.1011585 -2.2231539,-1.1165496 -2.1784952,-1.1308722 -2.1335099,-1.1441212 -2.0882173,-1.1562911 -2.0426369,-1.1673765 -1.9967879,-1.1773722 -1.9506897,-1.1862728 -1.9043616,-1.1940728 -1.8578228,-1.200767 -1.8110992,-1.2063492 -1.7642808,-1.2108079 -1.7174076,-1.2141426 -1.6705005,-1.2163557 -1.6235803,-1.2174499 -1.5766676,-1.2174275z" transform="matrix(1,0,0,-1,3.5707031,2.7335475)" fill="rgb(0,0,0)" shaper:cutDepth="0.001" stroke-linecap="round" stroke-linejoin="round" /><path d="M-3.2212208,0.7820762 a1.6,1.6 0 1,1 3.2,0 a1.6,1.6 0 1,1 -3.2,0z" transform="matrix(1,0,0,-1,3.5707031,2.7335475)" fill="rgb(255,255,255)" stroke="rgb(0,0,0)" stroke-width="0.0010cm" stroke-linecap="round" stroke-linejoin="round" shaper:cutDepth="0.001" /></svg>