<?xml version="1.0" encoding="utf-8"?>
<!-- Generator: Fusion 360, Shaper Origin Export Add-In, Version 1.6.2  -->
<svg xmlns="http://www.w3.org/2000/svg" xmlns:xlink="http://www.w3.org/1999/xlink" xmlns:shaper="http://www.shapertools.com/namespaces/shaper" shaper:fusionaddin="version:1.6.2" width="5.9499602cm" height="3.3cm" version="1.1" x="0cm" y="0cm" viewBox="0 0 5.9499602 3.3" enable-background="new 0 0 5.9499602 3.3" xml:space="preserve"><path d="M-0,0 L5.8499602,0 A0.1,0.1 270 0,1 5.9499602,0.1 L5.9499602,3.2 A0.1,0.1 0 0,1 5.8499602,3.3 L-0,3.3 -0,0z" transform="matrix(1,0,0,-1,0,3.3)" fill="rgb(0,0,0)" shaper:cutDepth="0.001" stroke-linecap="round" stroke-linejoin="round" /><path d="M2.499744,1.6 L2.499744,1.6 2.4985611,1.6519342 2.495015,1.7037607 2.489113,1.7553721 2.4808672,1.8066616 2.4702949,1.8575227 2.4574179,1.90785 2.4422629,1.9575393 2.4248614,2.0064875 2.4052493,2.0545932 2.3834673,2.1017567 2.3595607,2.1478802 2.3335788,2.1928681 2.3055757,2.2366273 2.2756093,2.2790669 2.2437417,2.3200991 2.210039,2.3596388 2.1745711,2.397604 2.1374114,2.433916 2.0986369,2.4684996 2.0583281,2.5012831 2.0165685,2.5321986 1.9734446,2.5611819 1.9290459,2.5881731 1.8834643,2.6131161 1.8367943,2.6359593 1.7891326,2.6566553 1.7405781,2.6751612 1.6912313,2.6914386 1.6411946,2.7054539 1.5905717,2.717178 1.5394674,2.7265866 1.4879878,2.7336601 1.4362394,2.738384 1.3843296,2.7407483 1.3323659,2.7407483 1.2804561,2.738384 1.2287078,2.7336601 1.1772281,2.7265866 1.1261239,2.717178 1.0755009,2.7054539 1.0254642,2.6914386 0.9761175,2.6751612 0.9275629,2.6566553 0.8799013,2.6359593 0.8332313,2.6131161 0.7876497,2.5881731 0.7432509,2.5611819 0.700127,2.5321986 0.6583674,2.5012831 0.6180586,2.4684996 0.5792842,2.433916 0.5421245,2.397604 0.5066565,2.3596388 0.4729538,2.3200991 0.4410863,2.2790669 0.4111198,2.2366273 0.3831167,2.1928681 0.3571349,2.1478802 0.3332282,2.1017567 0.3114463,2.0545932 0.2918342,2.0064875 0.2744326,1.9575393 0.2592776,1.90785 0.2464006,1.8575227 0.2358283,1.8066616 0.2275826,1.7553721 0.2216805,1.7037607 0.2181344,1.6519342 0.2169516,1.6 0.2181344,1.5480658 0.2216805,1.4962393 0.2275826,1.4446279 0.2358283,1.3933384 0.2464006,1.3424773 0.2592776,1.29215 0.2744326,1.2424607 0.2918342,1.1935125 0.3114463,1.1454068 0.3332282,1.0982433 0.3571349,1.0521198 0.3831167,1.0071319 0.4111198,0.9633727 0.4410863,0.9209331 0.4729538,0.8799009 0.5066565,0.8403612 0.5421245,0.802396 0.5792842,0.766084 0.6180586,0.7315004 0.6583674,0.6987169 0.700127,0.6678014 0.7432509,0.6388181 0.7876497,0.6118269 0.8332313,0.5868839 0.8799013,0.5640407 0.9275629,0.5433447 0.9761175,0.5248388 1.0254642,0.5085614 1.0755009,0.4945461 1.1261239,0.482822 1.1772281,0.4734134 1.2287078,0.4663399 1.2804561,0.461616 1.3323659,0.4592517 1.3843296,0.4592517 1.4362394,0.461616 1.4879878,0.4663399 1.5394674,0.4734134 1.5905717,0.482822 1.6411946,0.4945461 1.6912313,0.5085614 1.7405781,0.5248388 1.7891326,0.5433447 1.8367943,0.5640407 1.8834643,0.5868839 1.9290459,0.6118269 1.9734446,0.6388181 2.0165685,0.6678014 2.0583281,0.6987169 2.0986369,0.7315004 2.1374114,0.766084 2.1745711,0.802396 2.210039,0.8403612 2.2437417,0.8799009 2.2756093,0.9209331 2.3055757,0.9633727 2.3335788,1.0071319 2.3595607,1.0521198 2.3834673,1.0982433 2.4052493,1.1454068 2.4248614,1.1935125 2.4422629,1.2424607 2.4574179,1.29215 2.4702949,1.3424773 2.4808672,1.3933384 2.489113,1.4446279 2.495015,1.4962393 2.4985611,1.5480658 2.499744,1.6z" transform="matrix(1,0,0,-1,0,3.3)" fill="rgb(255,255,255)" stroke="rgb(0,0,0)" stroke-width="0.0010cm" stroke-linecap="round" stroke-linejoin="round" shaper:cutDepth="0.001" /></svg>