<?xml version="1.0" encoding="utf-8"?>
<!-- Generator: Fusion 360, Shaper Origin Export Add-In, Version 1.6.2  -->
<svg xmlns="http://www.w3.org/2000/svg" xmlns:xlink="http://www.w3.org/1999/xlink" xmlns:shaper="http://www.shapertools.com/namespaces/shaper" shaper:fusionaddin="version:1.6.2" width="11.46cm" height="11.46cm" version="1.1" x="0cm" y="0cm" viewBox="0 0 11.46 11.46" enable-background="new 0 0 11.46 11.46" xml:space="preserve"><path d="M11.06,0.4 L11.06,11.06 A0.4,0.4 0 0,1 10.66,11.46 L0,11.46 A0.4,0.4 90 0,1 -0.4,11.06 L-0.4,0.4 A0.4,0.4 180 0,1 -0,0 L10.66,0 A0.4,0.4 270 0,1 11.06,0.4z" transform="matrix(1,0,0,-1,0.4,11.46)" fill="rgb(0,0,0)" shaper:cutDepth="0.001" stroke-linecap="round" stroke-linejoin="round" /><path d="M4.8212137,7.5201049 L4.1745444,3.053359 4.1745444,3.053359 4.1695154,3.0207558 4.1638844,2.9882518 4.1576551,2.9558575 4.1508312,2.9235833 4.1434163,2.8914397 4.135414,2.8594369 4.1268281,2.8275856 4.1176621,2.795896 4.1079198,2.7643786 4.0976048,2.7330438 4.0867209,2.701902 4.0752715,2.6709636 4.0632604,2.6402391 4.0506914,2.6097389 4.0375679,2.5794733 4.0238937,2.5494528 4.0096725,2.5196878 3.9949079,2.4901887 3.9796035,2.460966 3.9637631,2.43203 3.9473903,2.4033911 3.9304898,2.3750599 3.9130695,2.3470459 3.8951366,2.3193575 3.8766981,2.2920032 3.8577613,2.2649914 3.8383331,2.2383306 3.8184209,2.2120291 3.7980317,2.1860954 3.7771726,2.1605381 3.7558507,2.1353654 3.7340733,2.1105859 3.7118474,2.086208 3.6891801,2.0622401 3.6660787,2.0386907 3.6425502,2.0155682 3.6186017,1.9928811 3.5942404,1.9706377 3.5694734,1.9488466 3.5443077,1.9275168 3.5187491,1.9066634 3.4928068,1.8862933 3.4664909,1.8664109 3.4398114,1.8470206 3.4127785,1.8281269 3.3854022,1.8097339 3.3576926,1.7918462 3.3296598,1.7744681 3.3013138,1.757604 3.2726647,1.7412583 3.2144978,1.7101392 3.1552396,1.6811461 3.0949708,1.6543138 3.033772,1.6296773 2.9717238,1.6072716 2.9089069,1.5871317 2.8772354,1.5779224 2.845402,1.5692926 2.8134167,1.5612467 2.7812896,1.5537892 2.7490308,1.5469244 2.7166505,1.5406566 2.6841586,1.5349902 2.6515652,1.5299297 2.6188805,1.5254793 2.5861156,1.5216421 2.5532859,1.5184145 2.5204029,1.5157949 2.4874775,1.5137823 2.4545206,1.5123756 2.4215434,1.5115737 2.3885567,1.5113756 2.3555715,1.51178 2.3225988,1.5127861 2.2896496,1.5143927 2.2567348,1.5165987 2.1910526,1.5228047 2.1583071,1.5268025 2.1256399,1.5313954 2.0930621,1.5365823 2.0605846,1.5423622 2.0282184,1.548734 1.9959744,1.5556966 1.9638637,1.5632489 1.9318972,1.5713899 1.900086,1.5801184 1.8684409,1.5894334 1.8369729,1.5993338 1.8056933,1.6098156 1.7746127,1.6208722 1.7437407,1.6324983 1.7130872,1.6446891 1.6826622,1.6574394 1.6524753,1.6707442 1.6225364,1.6845984 1.5928554,1.698997 1.563442,1.7139349 1.5343062,1.729407 1.5054576,1.7454084 1.4769063,1.7619338 1.4486619,1.7789784 1.4207344,1.796537 1.3931335,1.8146046 1.365869,1.833176 1.3389509,1.8522464 1.3123894,1.8718107 1.2861973,1.8918648 1.2603829,1.9124009 1.2349531,1.9334103 1.209915,1.9548849 1.1852758,1.9768159 1.1610424,1.9991952 1.1372221,2.0220141 1.1138218,2.0452643 1.0908487,2.0689373 1.0462123,2.117518 1.0033695,2.1676887 0.9623771,2.2193818 0.9425924,2.2457781 0.9232916,2.2725298 0.9044817,2.2996283 0.8861697,2.3270652 0.8683629,2.354832 0.8510682,2.3829204 0.8342927,2.4113219 0.8180436,2.440028 0.8023279,2.4690303 0.7871526,2.4983204 0.7725251,2.5278889 0.7584506,2.5577233 0.7449318,2.5878125 0.7319712,2.6181459 0.7195713,2.6487126 0.7077348,2.679502 0.696464,2.7105033 0.6857616,2.7417058 0.67563,2.7730988 0.6660717,2.8046716 0.6486854,2.8683133 0.6336227,2.9325452 0.6209039,2.9972815 0.6154298,3.0298119 0.6105492,3.0624363 0.6062647,3.0951438 0.6025787,3.1279237 0.5994938,3.1607654 0.5970125,3.193658 0.5951374,3.2265908 0.593871,3.2595532 0.5931167,3.3255236 0.5931174,3.4574829 0.5931187,3.7214015 0.5931213,4.2492386 0.5931319,6.3605874 0.5931372,7.4162618 0.5931385,7.6801804 0.5931392,7.8121397 0.5938226,7.8781121 0.5965372,7.944029 0.6013066,8.0098287 0.6081174,8.0754491 0.6169563,8.1408284 0.6278097,8.2059046 0.6406644,8.270616 0.655507,8.3349006 0.6723241,8.3986965 0.6911023,8.4619418 0.7118282,8.5245746 0.7344884,8.5865331 0.7590696,8.6477554 0.7855583,8.7081795 0.8139302,8.7677428 0.8441475,8.8263903 0.8761739,8.88407 0.909973,8.9407299 0.9455083,8.9963182 0.9827436,9.050783 1.0216424,9.1040723 1.0621684,9.1561342 1.1042851,9.2069169 1.1479563,9.2563683 1.1931454,9.3044367 1.2398161,9.3510701 1.287923,9.3962204 1.3374129,9.4398497 1.3882338,9.4819214 1.4403339,9.5223991 1.4936613,9.5612462 1.548164,9.5984263 1.6037903,9.6339028 1.6604882,9.6676393 1.7182057,9.6995993 1.7768911,9.7297463 1.8364923,9.7580352 1.8969517,9.7844226 1.9582072,9.8088965 2.0201968,9.8314461 2.0828582,9.8520604 2.1461292,9.8707284 2.2099478,9.8874393 2.2742517,9.902182 2.3389788,9.9149457 2.4040669,9.9257194 2.4694538,9.9344922 2.5350774,9.9412531 2.6008755,9.9459912 2.6667859,9.9486956 2.7327466,9.9493553 2.7986952,9.9479594 2.8645697,9.9444969 2.9303079,9.938957 2.9958423,9.9313419 3.0611039,9.9216782 3.1260323,9.9099854 3.1905672,9.8962829 3.2546482,9.8805899 3.3182151,9.8629257 3.3812075,9.8433097 3.4435651,9.8217611 3.5052276,9.7982991 3.5661345,9.7729433 3.6262257,9.7457127 3.6854408,9.7166268 3.7437194,9.6857047 3.8010017,9.6529693 3.8572338,9.6184618 3.9123657,9.5822227 3.9663478,9.5442912 4.0191303,9.5047069 4.0706633,9.463509 4.1208973,9.4207369 4.1697823,9.3764301 4.2172687,9.3306279 4.2633067,9.2833697 4.3078427,9.2346942 4.3508259,9.1846465 4.3922237,9.1332812 4.4320045,9.080653 4.4701369,9.0268169 4.5065893,8.9718277 4.54133,8.9157402 4.5743276,8.8586093 4.6055505,8.8004899 4.634967,8.7414367 4.6625457,8.6815047 4.688255,8.6207488 4.7120632,8.5592236 4.7339389,8.4969842 4.7538505,8.4340855 4.7717724,8.3705925 4.7876967,8.3065714 4.8016185,8.2420853 4.8135329,8.1771975 4.8234353,8.111971 4.8313207,8.0464688 4.8371843,7.9807543 4.8410213,7.9148903 4.8428269,7.8489402 4.8425961,7.7829669 4.8403243,7.7170336 4.8360065,7.6512034 4.8296379,7.5855395 4.8212137,7.5201049z" transform="matrix(1,0,0,-1,0.4,11.46)" fill="rgb(255,255,255)" stroke="rgb(0,0,0)" stroke-width="0.0010cm" stroke-linecap="round" stroke-linejoin="round" shaper:cutDepth="0.001" /><path d="M5.8387863,3.9398951 L6.4854556,8.406641 6.4854556,8.406641 6.490486,8.4392437 6.4961208,8.471746 6.5023561,8.5041378 6.5091878,8.5364087 6.5166119,8.5685485 6.5246243,8.6005469 6.5332211,8.6323937 6.5423981,8.6640786 6.5521513,8.6955913 6.5624768,8.7269217 6.5848282,8.7889942 6.6094201,8.8502139 6.6362202,8.9104989 6.6504382,8.9402652 6.6651962,8.9697671 6.6804901,8.9989942 6.6963159,9.0279363 6.7126695,9.0565832 6.7295469,9.0849246 6.7469441,9.1129502 6.7648571,9.1406498 6.7832817,9.1680132 6.8022131,9.195029 6.8216428,9.2216869 6.8415627,9.2479794 6.8619645,9.2738991 6.88284,9.2994387 6.904181,9.324591 6.9259792,9.3493484 6.9482264,9.3737038 6.9709145,9.3976497 7.0175802,9.4442839 7.0659105,9.4891923 7.1158397,9.5323161 7.167302,9.5735966 7.1935875,9.5935274 7.2202316,9.6129753 7.2472261,9.631933 7.2745628,9.6503932 7.3022335,9.6683486 7.3302299,9.6857918 7.3585438,9.7027154 7.387167,9.7191122 7.4160913,9.7349748 7.4453054,9.7502984 7.4747967,9.7650807 7.5045548,9.7793181 7.5345692,9.7930071 7.5648293,9.806144 7.5953249,9.8187252 7.6260454,9.8307471 7.6569804,9.8422062 7.6881193,9.8530988 7.7194519,9.8634213 7.7509676,9.8731702 7.782656,9.8823419 7.8145065,9.8909327 7.8465089,9.8989391 7.8786526,9.9063574 7.9109271,9.9131841 7.943322,9.9194156 7.9758268,9.9250479 8.0084295,9.9300759 8.0411188,9.9344994 8.0738839,9.9383189 8.1067136,9.9415349 8.1395969,9.9441479 8.1725228,9.9461583 8.2054803,9.9475668 8.2384584,9.9483737 8.2714461,9.9485796 8.3044323,9.9481851 8.337406,9.9471906 8.403272,9.9434036 8.4361421,9.9406122 8.4689558,9.9372228 8.5017019,9.933236 8.5343693,9.9286522 8.5669472,9.923472 8.5994245,9.9176959 8.6317901,9.9113243 8.6640331,9.9043578 8.6961424,9.8967969 8.728107,9.8886421 8.7599135,9.8798925 8.7915476,9.8705489 8.8229999,9.8606169 8.8542608,9.8501025 8.8853212,9.8390113 8.9161716,9.8273492 8.9468028,9.8151218 8.9772052,9.802335 9.0073697,9.7889946 9.0372869,9.7751062 9.0963417,9.745709 9.154295,9.7141894 9.2110718,9.6805937 9.2665975,9.6449681 9.3207973,9.6073587 9.3735962,9.5678118 9.399447,9.5473261 9.4249196,9.5263734 9.4500045,9.5049593 9.4746926,9.4830898 9.4989743,9.4607704 9.5228404,9.4380071 9.5462815,9.4148056 9.5692883,9.3911716 9.5918513,9.3671109 9.6139614,9.3426294 9.6356127,9.3177398 9.656801,9.2924554 9.6775206,9.2667856 9.6977654,9.2407398 9.7175298,9.2143274 9.7368078,9.1875577 9.7555935,9.1604401 9.7738812,9.132984 9.791665,9.1051988 9.808939,9.0770938 9.8256975,9.0486784 9.8419344,9.019962 9.8576441,8.990954 9.8728206,8.9616637 9.8874581,8.9321005 9.9015508,8.9022738 9.9150927,8.8721929 9.9280781,8.8418673 9.9405008,8.8113066 9.9523554,8.7805219 9.9636396,8.749524 9.9743513,8.7183239 9.9844882,8.6869323 9.9940484,8.65536 10.0030296,8.623618 10.0114298,8.5917169 10.0192468,8.5596678 10.0264784,8.5274813 10.0331226,8.4951683 10.0391771,8.4627397 10.04464,8.4302063 10.049509,8.397579 10.053782,8.3648684 10.0574568,8.3320856 10.0605315,8.2992412 10.0630037,8.2663463 10.0648714,8.2334115 10.0661325,8.2004477 10.0668833,8.1344764 10.0668826,8.0025171 10.0668813,7.7385985 10.0668787,7.2107614 10.0668681,5.0994126 10.0668628,4.0437382 10.0668615,3.7798196 10.0668608,3.6478603 10.0661767,3.5818881 10.0634598,3.5159717 10.0586869,3.450173 10.0518717,3.3845538 10.0430282,3.3191758 10.03217,3.2541007 10.0193112,3.1893905 10.0044654,3.1251068 9.9876465,3.0613114 9.9688684,2.998066 9.9481448,2.9354326 9.9254896,2.8734727 9.9009166,2.8122483 9.8744397,2.751821 9.8460743,2.6922545 9.8158522,2.6336117 9.7838125,2.5759434 9.7499942,2.5192993 9.7144365,2.4637292 9.6771784,2.4092828 9.6382591,2.3560099 9.5977176,2.3039603 9.555593,2.2531836 9.5119245,2.2037298 9.4667512,2.1556485 9.4201121,2.1089895 9.3720463,2.0638026 9.322593,2.0201375 9.2717913,1.978044 9.2196942,1.9375625 9.1663618,1.8987236 9.1118492,1.8615591 9.0562112,1.8261007 8.9995026,1.7923804 8.9417783,1.76043 8.8830933,1.7302814 8.8235025,1.7019663 8.7630606,1.6755167 8.7018227,1.6509646 8.639847,1.6283452 8.5771958,1.6076751 8.5139316,1.5889649 8.4501168,1.5722248 8.3858139,1.5574655 8.3210855,1.5446974 8.2559939,1.5339308 8.1906016,1.5251764 8.1249711,1.5184445 8.0591649,1.5137456 7.9932455,1.5110901 7.9272752,1.5104886 7.8613166,1.5119514 7.795439,1.5154942 7.7297128,1.5211163 7.6641981,1.528798 7.5989547,1.5385195 7.5340426,1.5502611 7.4695218,1.5640031 7.4054522,1.5797257 7.3418938,1.5974092 7.2789066,1.6170339 7.2165505,1.6385801 7.1548855,1.662028 7.0939714,1.6873579 7.0338684,1.71455 6.9746363,1.7435847 6.9163351,1.7744421 6.8590247,1.8071026 6.8027651,1.8415465 6.7476163,1.8777539 6.6936316,1.9156814 6.6408558,1.9552727 6.589335,1.9964843 6.5391153,2.0392726 6.490243,2.0835942 6.442764,2.1294053 6.3967246,2.1766626 6.3521709,2.2253224 6.3091491,2.2753412 6.2677051,2.3266754 6.2278861,2.3792806 6.1897332,2.4331044 6.1532753,2.4880901 6.1185412,2.5441813 6.0855593,2.6013213 6.0543583,2.6594535 6.0249667,2.7185214 5.9974131,2.7784683 5.9717261,2.8392377 5.9479341,2.900773 5.9260658,2.9630175 5.9061498,3.0259148 5.8882154,3.0894061 5.8722821,3.1534261 5.8583545,3.2179115 5.8464372,3.282799 5.8365343,3.3480255 5.8286505,3.4135278 5.8227899,3.4792427 5.818957,3.5451071 5.8171562,3.6110578 5.8173918,3.6770317 5.8196683,3.7429655 5.8239899,3.8087961 5.8303611,3.8744604 5.8387863,3.9398951z" transform="matrix(1,0,0,-1,0.4,11.46)" fill="rgb(255,255,255)" stroke="rgb(0,0,0)" stroke-width="0.0010cm" stroke-linecap="round" stroke-linejoin="round" shaper:cutDepth="0.001" /><path d="M10.435,1.5588225 a0.225,0.225 0 1,1 0.45,0 a0.225,0.225 0 1,1 -0.45,0z" transform="matrix(1,0,0,-1,0.4,11.46)" fill="rgb(255,255,255)" stroke="rgb(0,0,0)" stroke-width="0.0010cm" stroke-linecap="round" stroke-linejoin="round" shaper:cutDepth="0.001" /><path d="M-0.225,1.5588225 a0.225,0.225 0 1,1 0.45,0 a0.225,0.225 0 1,1 -0.45,0z" transform="matrix(1,0,0,-1,0.4,11.46)" fill="rgb(255,255,255)" stroke="rgb(0,0,0)" stroke-width="0.0010cm" stroke-linecap="round" stroke-linejoin="round" shaper:cutDepth="0.001" /><path d="M-0.225,9.9011775 a0.225,0.225 0 1,1 0.45,0 a0.225,0.225 0 1,1 -0.45,0z" transform="matrix(1,0,0,-1,0.4,11.46)" fill="rgb(255,255,255)" stroke="rgb(0,0,0)" stroke-width="0.0010cm" stroke-linecap="round" stroke-linejoin="round" shaper:cutDepth="0.001" /><path d="M10.435,9.9011775 a0.225,0.225 0 1,1 0.45,0 a0.225,0.225 0 1,1 -0.45,0z" transform="matrix(1,0,0,-1,0.4,11.46)" fill="rgb(255,255,255)" stroke="rgb(0,0,0)" stroke-width="0.0010cm" stroke-linecap="round" stroke-linejoin="round" shaper:cutDepth="0.001" /></svg>