<?xml version="1.0" encoding="utf-8"?>
<!-- Generator: Fusion 360, Shaper Origin Export Add-In, Version 1.6.2  -->
<svg xmlns="http://www.w3.org/2000/svg" xmlns:xlink="http://www.w3.org/1999/xlink" xmlns:shaper="http://www.shapertools.com/namespaces/shaper" shaper:fusionaddin="version:1.6.2" width="11.46cm" height="11.46cm" version="1.1" x="0cm" y="0cm" viewBox="0 0 11.46 11.46" enable-background="new 0 0 11.46 11.46" xml:space="preserve"><path d="M10.66,11.46 L0,11.46 A0.4,0.4 90 0,1 -0.4,11.06 L-0.4,0.4 A0.4,0.4 180 0,1 -0,0 L10.66,0 A0.4,0.4 270 0,1 11.06,0.4 L11.06,11.06 A0.4,0.4 0 0,1 10.66,11.46z" transform="matrix(1,0,0,-1,0.4,11.46)" fill="rgb(0,0,0)" shaper:cutDepth="0.001" stroke-linecap="round" stroke-linejoin="round" /><path d="M10.435,1.5588225 a0.225,0.225 0 1,1 0.45,0 a0.225,0.225 0 1,1 -0.45,0z" transform="matrix(1,0,0,-1,0.4,11.46)" fill="rgb(255,255,255)" stroke="rgb(0,0,0)" stroke-width="0.0010cm" stroke-linecap="round" stroke-linejoin="round" shaper:cutDepth="0.001" /><path d="M-0.225,11.06 a0.225,0.225 0 1,1 0.45,0 a0.225,0.225 0 1,1 -0.45,0z" transform="matrix(1,0,0,-1,0.4,11.46)" fill="rgb(255,255,255)" stroke="rgb(0,0,0)" stroke-width="0.0010cm" stroke-linecap="round" stroke-linejoin="round" shaper:cutDepth="0.001" /><path d="M10.435,11.06 a0.225,0.225 0 1,1 0.45,0 a0.225,0.225 0 1,1 -0.45,0z" transform="matrix(1,0,0,-1,0.4,11.46)" fill="rgb(255,255,255)" stroke="rgb(0,0,0)" stroke-width="0.0010cm" stroke-linecap="round" stroke-linejoin="round" shaper:cutDepth="0.001" /><path d="M-0.225,9.9011775 a0.225,0.225 0 1,1 0.45,0 a0.225,0.225 0 1,1 -0.45,0z" transform="matrix(1,0,0,-1,0.4,11.46)" fill="rgb(255,255,255)" stroke="rgb(0,0,0)" stroke-width="0.0010cm" stroke-linecap="round" stroke-linejoin="round" shaper:cutDepth="0.001" /><path d="M-0.225,0.4 a0.225,0.225 0 1,1 0.45,0 a0.225,0.225 0 1,1 -0.45,0z" transform="matrix(1,0,0,-1,0.4,11.46)" fill="rgb(255,255,255)" stroke="rgb(0,0,0)" stroke-width="0.0010cm" stroke-linecap="round" stroke-linejoin="round" shaper:cutDepth="0.001" /><path d="M1.4012172,5.7900987 a3.2,3.2 0 1,1 6.4,0 a3.2,3.2 0 1,1 -6.4,0z" transform="matrix(1,0,0,-1,0.4,11.46)" fill="rgb(255,255,255)" stroke="rgb(0,0,0)" stroke-width="0.0010cm" stroke-linecap="round" stroke-linejoin="round" shaper:cutDepth="0.001" /><path d="M-0.225,1.5588225 a0.225,0.225 0 1,1 0.45,0 a0.225,0.225 0 1,1 -0.45,0z" transform="matrix(1,0,0,-1,0.4,11.46)" fill="rgb(255,255,255)" stroke="rgb(0,0,0)" stroke-width="0.0010cm" stroke-linecap="round" stroke-linejoin="round" shaper:cutDepth="0.001" /><path d="M10.435,9.9011775 a0.225,0.225 0 1,1 0.45,0 a0.225,0.225 0 1,1 -0.45,0z" transform="matrix(1,0,0,-1,0.4,11.46)" fill="rgb(255,255,255)" stroke="rgb(0,0,0)" stroke-width="0.0010cm" stroke-linecap="round" stroke-linejoin="round" shaper:cutDepth="0.001" /><path d="M10.435,0.4 a0.225,0.225 0 1,1 0.45,0 a0.225,0.225 0 1,1 -0.45,0z" transform="matrix(1,0,0,-1,0.4,11.46)" fill="rgb(255,255,255)" stroke="rgb(0,0,0)" stroke-width="0.0010cm" stroke-linecap="round" stroke-linejoin="round" shaper:cutDepth="0.001" /></svg>