<?xml version="1.0" encoding="utf-8"?>
<!-- Generator: Fusion 360, Shaper Origin Export Add-In, Version 1.5.0  -->
<svg enable-background="new 0 0 16.5 12.5" height="12.5cm" shaper:fusionaddin="version:1.5.0" version="1.1" viewBox="0 0 16.5 12.5" width="16.5cm" x="0cm" xml:space="preserve" xmlns="http://www.w3.org/2000/svg" xmlns:shaper="http://www.shapertools.com/namespaces/shaper" xmlns:xlink="http://www.w3.org/1999/xlink" y="0cm"><path d="M16.5,12.5 L0,12.5 0,-0 16.5,0 16.5,12.5z" fill="rgb(0,0,0)" shaper:cutDepth="0.002" shaper:pathType="exterior" transform="matrix(1,0,0,-1,-0,12.5)" vector-effect="non-scaling-stroke" /><path d="M15.7475,0.5375 a0.215,0.215 0 1,1 0.43,0 a0.215,0.215 0 1,1 -0.43,0z" fill="rgb(255,255,255)" shaper:cutDepth="0.002" shaper:pathType="interior" stroke="rgb(0,0,0)" transform="matrix(1,0,0,-1,-0,12.5)" vector-effect="non-scaling-stroke" /><path d="M0.3225,0.5375 a0.215,0.215 0 1,1 0.43,0 a0.215,0.215 0 1,1 -0.43,0z" fill="rgb(255,255,255)" shaper:cutDepth="0.002" shaper:pathType="interior" stroke="rgb(0,0,0)" transform="matrix(1,0,0,-1,-0,12.5)" vector-effect="non-scaling-stroke" /><path d="M15.7475,11.9625 a0.215,0.215 0 1,1 0.43,0 a0.215,0.215 0 1,1 -0.43,0z" fill="rgb(255,255,255)" shaper:cutDepth="0.002" shaper:pathType="interior" stroke="rgb(0,0,0)" transform="matrix(1,0,0,-1,-0,12.5)" vector-effect="non-scaling-stroke" /><path d="M0.3225,11.9625 a0.215,0.215 0 1,1 0.43,0 a0.215,0.215 0 1,1 -0.43,0z" fill="rgb(255,255,255)" shaper:cutDepth="0.002" shaper:pathType="interior" stroke="rgb(0,0,0)" transform="matrix(1,0,0,-1,-0,12.5)" vector-effect="non-scaling-stroke" /></svg>