<?xml version="1.0" encoding="utf-8"?>
<!-- Generator: Fusion 360, Shaper Origin Export Add-In, Version 1.5.0  -->
<svg enable-background="new 0 0 10.27 8.6" height="8.6cm" shaper:fusionaddin="version:1.5.0" version="1.1" viewBox="0 0 10.27 8.6" width="10.27cm" x="0cm" xml:space="preserve" xmlns="http://www.w3.org/2000/svg" xmlns:shaper="http://www.shapertools.com/namespaces/shaper" xmlns:xlink="http://www.w3.org/1999/xlink" y="0cm"><path d="M0,0 L10.27,0 10.27,7.8836251 9.78,7.8836251 A0.97,0.97 270 0,0 8.8437445,8.6 L1.4262555,8.6 A0.97,0.97 344.8427449 0,0 0.49,7.8836251 L0,7.8836251 0,0z" fill="rgb(0,0,0)" shaper:cutDepth="0.001" shaper:pathType="exterior" transform="matrix(1,0,0,-1,-0,8.6)" vector-effect="non-scaling-stroke" /><path d="M8.9400309,7.4918901 a0.2,0.2 0 1,1 0.4,0 a0.2,0.2 0 1,1 -0.4,0z" fill="rgb(255,255,255)" shaper:cutDepth="0.001" shaper:pathType="interior" stroke="rgb(0,0,0)" transform="matrix(1,0,0,-1,-0,8.6)" vector-effect="non-scaling-stroke" /><path d="M1.5123376,4.25 a3.1656144,3.1656144 0 1,1 6.3312288,0 a3.1656144,3.1656144 0 1,1 -6.3312288,0z" fill="rgb(255,255,255)" shaper:cutDepth="0.001" shaper:pathType="interior" stroke="rgb(0,0,0)" transform="matrix(1,0,0,-1,-0,8.6)" vector-effect="non-scaling-stroke" /><path d="M0.816759,1.5899876 a0.2,0.2 0 1,1 0.4,0 a0.2,0.2 0 1,1 -0.4,0z" fill="rgb(255,255,255)" shaper:cutDepth="0.001" shaper:pathType="interior" stroke="rgb(0,0,0)" transform="matrix(1,0,0,-1,-0,8.6)" vector-effect="non-scaling-stroke" /></svg>