<?xml version="1.0" encoding="utf-8"?>
<!-- Generator: Fusion 360, Shaper Origin Export Add-In, Version 1.5.0  -->
<svg enable-background="new 0 0 11.2085281 8.7" height="8.7cm" shaper:fusionaddin="version:1.5.0" version="1.1" viewBox="0 0 11.2085281 8.7" width="11.2085281cm" x="0cm" xml:space="preserve" xmlns="http://www.w3.org/2000/svg" xmlns:shaper="http://www.shapertools.com/namespaces/shaper" xmlns:xlink="http://www.w3.org/1999/xlink" y="0cm"><path d="M0.0012653,7.7239324 A0.2,0.2 0 0,0 -0.1987347,7.5239324 L-0.6387347,7.5239324 A0.2,0.2 90 0,1 -0.8387347,7.3239324 L-0.8387347,0.8387347 A0.5,0.5 180 0,1 -0.6922881,0.4851814 L-0.3535534,0.1464466 A0.5,0.5 225 0,1 -0,-0 L9.5310586,0 A0.5,0.5 270 0,1 9.884612,0.1464466 L10.2233468,0.4851814 A0.5,0.5 315 0,1 10.3697934,0.8387347 L10.3697934,7.3239324 A0.2,0.2 0 0,1 10.1697934,7.5239324 L9.7297934,7.5239324 A0.2,0.2 270 0,0 9.5297934,7.7239324 L9.5297934,8.2 A0.5,0.5 0 0,1 9.0297934,8.7 L0.5012653,8.7 A0.5,0.5 90 0,1 0.0012653,8.2 L0.0012653,7.7239324z" fill="rgb(0,0,0)" shaper:cutDepth="0.001" shaper:pathType="exterior" transform="matrix(1,0,0,-1,0.8387347,8.7)" vector-effect="non-scaling-stroke" /><path d="M8.5081193,7.1861554 a0.225,0.225 0 1,1 0.45,0 a0.225,0.225 0 1,1 -0.45,0z" fill="rgb(255,255,255)" shaper:cutDepth="0.001" shaper:pathType="interior" stroke="rgb(0,0,0)" transform="matrix(1,0,0,-1,0.8387347,8.7)" vector-effect="non-scaling-stroke" /><path d="M0.5957569,1.0043658 a0.225,0.225 0 1,1 0.45,0 a0.225,0.225 0 1,1 -0.45,0z" fill="rgb(255,255,255)" shaper:cutDepth="0.001" shaper:pathType="interior" stroke="rgb(0,0,0)" transform="matrix(1,0,0,-1,0.8387347,8.7)" vector-effect="non-scaling-stroke" /><path d="M1.4169841,4.4 a3.75,3.75 0 1,1 7.5,0 a3.75,3.75 0 1,1 -7.5,0z" fill="rgb(255,255,255)" shaper:cutDepth="0.001" shaper:pathType="interior" stroke="rgb(0,0,0)" transform="matrix(1,0,0,-1,0.8387347,8.7)" vector-effect="non-scaling-stroke" /></svg>