<?xml version="1.0" encoding="utf-8"?>
<!-- Generator: Fusion 360, Shaper Origin Export Add-In, Version 1.5.0  -->
<svg enable-background="new 0 0 17.52 13.02" height="13.02cm" shaper:fusionaddin="version:1.5.0" version="1.1" viewBox="0 0 17.52 13.02" width="17.52cm" x="0cm" xml:space="preserve" xmlns="http://www.w3.org/2000/svg" xmlns:shaper="http://www.shapertools.com/namespaces/shaper" xmlns:xlink="http://www.w3.org/1999/xlink" y="0cm"><path d="M-0,13.02 A0.52,0.52 90 0,1 -0.52,12.5 L-0.52,0.52 A0.52,0.52 180 0,1 -0,-0 L16.48,-0 A0.52,0.52 270 0,1 17,0.52 L17,12.5 A0.52,0.52 0 0,1 16.48,13.02 L-0,13.02z" fill="rgb(0,0,0)" shaper:cutDepth="0.001" shaper:pathType="exterior" transform="matrix(1,0,0,-1,0.52,13.02)" vector-effect="non-scaling-stroke" /><path d="M-0.1925988,12.4625988 a0.23,0.23 0 1,1 0.46,0 a0.23,0.23 0 1,1 -0.46,0z" fill="rgb(255,255,255)" shaper:cutDepth="0.001" shaper:pathType="interior" stroke="rgb(0,0,0)" transform="matrix(1,0,0,-1,0.52,13.02)" vector-effect="non-scaling-stroke" /><path d="M16.2125988,12.4625988 a0.23,0.23 0 1,1 0.46,0 a0.23,0.23 0 1,1 -0.46,0z" fill="rgb(255,255,255)" shaper:cutDepth="0.001" shaper:pathType="interior" stroke="rgb(0,0,0)" transform="matrix(1,0,0,-1,0.52,13.02)" vector-effect="non-scaling-stroke" /><path d="M16.2125988,0.5574012 a0.23,0.23 0 1,1 0.46,0 a0.23,0.23 0 1,1 -0.46,0z" fill="rgb(255,255,255)" shaper:cutDepth="0.001" shaper:pathType="interior" stroke="rgb(0,0,0)" transform="matrix(1,0,0,-1,0.52,13.02)" vector-effect="non-scaling-stroke" /><path d="M16.0300051,9.5099881 L16.0300051,3.5099881 15.2800051,3.5099881 15.2800051,9.5099881 16.0300051,9.5099881z" fill="rgb(255,255,255)" shaper:cutDepth="0.001" shaper:pathType="interior" stroke="rgb(0,0,0)" transform="matrix(1,0,0,-1,0.52,13.02)" vector-effect="non-scaling-stroke" /><path d="M-0.1925988,0.5574012 a0.23,0.23 0 1,1 0.46,0 a0.23,0.23 0 1,1 -0.46,0z" fill="rgb(255,255,255)" shaper:cutDepth="0.001" shaper:pathType="interior" stroke="rgb(0,0,0)" transform="matrix(1,0,0,-1,0.52,13.02)" vector-effect="non-scaling-stroke" /></svg>