<?xml version="1.0" encoding="utf-8"?>
<!-- Generator: Fusion 360, Shaper Origin Export Add-In, Version 1.5.0  -->
<svg enable-background="new 0 0 18.1885281 11.7885281" height="11.7885281cm" shaper:fusionaddin="version:1.5.0" version="1.1" viewBox="0 0 18.1885281 11.7885281" width="18.1885281cm" x="0cm" xml:space="preserve" xmlns="http://www.w3.org/2000/svg" xmlns:shaper="http://www.shapertools.com/namespaces/shaper" xmlns:xlink="http://www.w3.org/1999/xlink" y="0cm"><path d="M-0.57,11.2185281 L-0.57,0.57 A0.57,0.57 180 0,1 0,-0 L17.0485281,0 A0.57,0.57 270 0,1 17.6185281,0.57 L17.6185281,11.2185281 A0.57,0.57 0 0,1 17.0485281,11.7885281 L0,11.7885281 A0.57,0.57 90 0,1 -0.57,11.2185281z" fill="rgb(0,0,0)" shaper:cutDepth="0.001" shaper:pathType="exterior" transform="matrix(1,0,0,-1,0.57,11.7885281)" vector-effect="non-scaling-stroke" /><path d="M16.8235281,11.2185281 a0.225,0.225 0 1,1 0.45,0 a0.225,0.225 0 1,1 -0.45,0z" fill="rgb(255,255,255)" shaper:cutDepth="0.001" shaper:pathType="interior" stroke="rgb(0,0,0)" transform="matrix(1,0,0,-1,0.57,11.7885281)" vector-effect="non-scaling-stroke" /><path d="M8.2992641,11.2185281 a0.225,0.225 0 1,1 0.45,0 a0.225,0.225 0 1,1 -0.45,0z" fill="rgb(255,255,255)" shaper:cutDepth="0.001" shaper:pathType="interior" stroke="rgb(0,0,0)" transform="matrix(1,0,0,-1,0.57,11.7885281)" vector-effect="non-scaling-stroke" /><path d="M-0.225,11.2185281 a0.225,0.225 0 1,1 0.45,0 a0.225,0.225 0 1,1 -0.45,0z" fill="rgb(255,255,255)" shaper:cutDepth="0.001" shaper:pathType="interior" stroke="rgb(0,0,0)" transform="matrix(1,0,0,-1,0.57,11.7885281)" vector-effect="non-scaling-stroke" /><path d="M-0.225,0.57 a0.225,0.225 0 1,1 0.45,0 a0.225,0.225 0 1,1 -0.45,0z" fill="rgb(255,255,255)" shaper:cutDepth="0.001" shaper:pathType="interior" stroke="rgb(0,0,0)" transform="matrix(1,0,0,-1,0.57,11.7885281)" vector-effect="non-scaling-stroke" /><path d="M8.2992641,0.57 a0.225,0.225 0 1,1 0.45,0 a0.225,0.225 0 1,1 -0.45,0z" fill="rgb(255,255,255)" shaper:cutDepth="0.001" shaper:pathType="interior" stroke="rgb(0,0,0)" transform="matrix(1,0,0,-1,0.57,11.7885281)" vector-effect="non-scaling-stroke" /><path d="M16.8235281,0.57 a0.225,0.225 0 1,1 0.45,0 a0.225,0.225 0 1,1 -0.45,0z" fill="rgb(255,255,255)" shaper:cutDepth="0.001" shaper:pathType="interior" stroke="rgb(0,0,0)" transform="matrix(1,0,0,-1,0.57,11.7885281)" vector-effect="non-scaling-stroke" /></svg>