<?xml version="1.0" encoding="utf-8"?>
<!-- Generator: Fusion 360, Shaper Origin Export Add-In, Version 1.5.0  -->
<svg enable-background="new 0 0 18.0885281 11.6885281" height="11.6885281cm" shaper:fusionaddin="version:1.5.0" version="1.1" viewBox="0 0 18.0885281 11.6885281" width="18.0885281cm" x="0cm" xml:space="preserve" xmlns="http://www.w3.org/2000/svg" xmlns:shaper="http://www.shapertools.com/namespaces/shaper" xmlns:xlink="http://www.w3.org/1999/xlink" y="0cm"><path d="M17.5685281,0.52 L17.5685281,11.1685281 A0.52,0.52 0 0,1 17.0485281,11.6885281 L0,11.6885281 A0.52,0.52 90 0,1 -0.52,11.1685281 L-0.52,0.52 A0.52,0.52 180 0,1 -0,-0 L17.0485281,0 A0.52,0.52 270 0,1 17.5685281,0.52z" fill="rgb(0,0,0)" shaper:cutDepth="0.001" shaper:pathType="exterior" transform="matrix(1,0,0,-1,0.52,11.6885281)" vector-effect="non-scaling-stroke" /><path d="M0.9242641,1.4442641 L16.1242641,1.4442641 16.1242641,10.2442641 0.9242641,10.2442641 0.9242641,1.4442641z" fill="rgb(255,255,255)" shaper:cutDepth="0.001" shaper:pathType="interior" stroke="rgb(0,0,0)" transform="matrix(1,0,0,-1,0.52,11.6885281)" vector-effect="non-scaling-stroke" /></svg>