<?xml version="1.0" encoding="utf-8"?>
<!-- Generator: Fusion 360, Shaper Origin Export Add-In, Version 1.5.0  -->
<svg enable-background="new 0 0 17.2 10.85" height="10.85cm" shaper:fusionaddin="version:1.5.0" version="1.1" viewBox="0 0 17.2 10.85" width="17.2cm" x="0cm" xml:space="preserve" xmlns="http://www.w3.org/2000/svg" xmlns:shaper="http://www.shapertools.com/namespaces/shaper" xmlns:xlink="http://www.w3.org/1999/xlink" y="0cm"><path d="M16.42,10.07 A0.78,0.78 0 0,1 15.64,10.85 L0,10.85 A0.78,0.78 90 0,1 -0.78,10.07 L-0.78,0.78 A0.78,0.78 180 0,1 -0,-0 L15.64,0 A0.78,0.78 270 0,1 16.42,0.78 L16.42,10.07z" fill="rgb(0,0,0)" shaper:cutDepth="0.001" shaper:pathType="exterior" transform="matrix(1,0,0,-1,0.78,10.85)" vector-effect="non-scaling-stroke" /><path d="M-0.23,10.07 a0.23,0.23 0 1,1 0.46,0 a0.23,0.23 0 1,1 -0.46,0z" fill="rgb(255,255,255)" shaper:cutDepth="0.001" shaper:pathType="interior" stroke="rgb(0,0,0)" transform="matrix(1,0,0,-1,0.78,10.85)" vector-effect="non-scaling-stroke" /><path d="M15.41,10.07 a0.23,0.23 0 1,1 0.46,0 a0.23,0.23 0 1,1 -0.46,0z" fill="rgb(255,255,255)" shaper:cutDepth="0.001" shaper:pathType="interior" stroke="rgb(0,0,0)" transform="matrix(1,0,0,-1,0.78,10.85)" vector-effect="non-scaling-stroke" /><path d="M-0.23,0.78 a0.23,0.23 0 1,1 0.46,0 a0.23,0.23 0 1,1 -0.46,0z" fill="rgb(255,255,255)" shaper:cutDepth="0.001" shaper:pathType="interior" stroke="rgb(0,0,0)" transform="matrix(1,0,0,-1,0.78,10.85)" vector-effect="non-scaling-stroke" /><path d="M15.41,0.78 a0.23,0.23 0 1,1 0.46,0 a0.23,0.23 0 1,1 -0.46,0z" fill="rgb(255,255,255)" shaper:cutDepth="0.001" shaper:pathType="interior" stroke="rgb(0,0,0)" transform="matrix(1,0,0,-1,0.78,10.85)" vector-effect="non-scaling-stroke" /></svg>