<?xml version="1.0" encoding="utf-8"?>
<!-- Generator: Fusion 360, Shaper Origin Export Add-In, Version 1.5.0  -->
<svg enable-background="new 0 0 17.1 10.75" height="10.75cm" shaper:fusionaddin="version:1.5.0" version="1.1" viewBox="0 0 17.1 10.75" width="17.1cm" x="0cm" xml:space="preserve" xmlns="http://www.w3.org/2000/svg" xmlns:shaper="http://www.shapertools.com/namespaces/shaper" xmlns:xlink="http://www.w3.org/1999/xlink" y="0cm"><path d="M16.37,10.02 A0.73,0.73 0 0,1 15.64,10.75 L0,10.75 A0.73,0.73 90 0,1 -0.73,10.02 L-0.73,0.73 A0.73,0.73 180 0,1 0,-0 L15.64,0 A0.73,0.73 270 0,1 16.37,0.73 L16.37,10.02z" fill="rgb(0,0,0)" shaper:cutDepth="0.001" shaper:pathType="exterior" transform="matrix(1,0,0,-1,0.73,10.75)" vector-effect="non-scaling-stroke" /><path d="M0.2700001,9.7499999 L15.3699999,9.7499999 15.3699999,1.0000001 0.2700001,1.0000001 0.2700001,9.7499999z" fill="rgb(255,255,255)" shaper:cutDepth="0.001" shaper:pathType="interior" stroke="rgb(0,0,0)" transform="matrix(1,0,0,-1,0.73,10.75)" vector-effect="non-scaling-stroke" /></svg>