<?xml version="1.0" encoding="utf-8"?>
<!-- Generator: Fusion 360, Shaper Origin Export Add-In, Version 1.6.2  -->
<svg xmlns="http://www.w3.org/2000/svg" xmlns:xlink="http://www.w3.org/1999/xlink" xmlns:shaper="http://www.shapertools.com/namespaces/shaper" shaper:fusionaddin="version:1.6.2" width="13.7902944cm" height="14.16cm" version="1.1" x="0cm" y="0cm" viewBox="0 0 13.7902944 14.16" enable-background="new 0 0 13.7902944 14.16" xml:space="preserve"><path d="M11.602355,0.4040202 A0.4,0.4 180 0,0 11.7195123,0.6868629 L11.9943146,0.9616652 A0.4,0.4 135 0,0 12.2771573,1.0788225 L12.2811775,1.0788225 A0.4,0.4 270 0,1 12.6811775,1.4788225 L12.6811775,8.2812077 A0.2,0.2 0 0,1 12.4811775,8.4812077 L11.7511912,8.4812077 A0.2,0.2 270 0,0 11.5511912,8.6812077 L11.5511912,12.4812077 A0.45,0.45 0 0,1 11.1011912,12.9312077 L10.7455693,12.9312077 A0.2,0.2 270 0,0 10.5455693,13.1312077 L10.5455693,13.96 A0.2,0.2 0 0,1 10.3455693,14.16 L0,14.16 A0.4,0.4 90 0,1 -0.4,13.76 L-0.4,13.7559798 A0.4,0.4 0 0,0 -0.5171573,13.4731371 L-0.7919146,13.1983798 A0.4,0.4 315 0,0 -1.0747573,13.0812225 L-1.1091169,13.0812225 -1.1091169,4.4252327 A0.4,0.4 180 0,1 -1.0091169,4.1606575 A0.4,0.4 41.4096221 0,0 -0.9091169,3.8960824 L-0.9091169,1.2445079 A0.4,0.4 180 0,1 -0.7919596,0.9616652 L-0.5171573,0.6868629 A0.4,0.4 45 0,0 -0.4,0.4040202 L-0.4,0.4 A0.4,0.4 180 0,1 -0,0 L11.202355,0 A0.4,0.4 270 0,1 11.602355,0.4 L11.602355,0.4040202z" transform="matrix(1,0,0,-1,1.1091169,14.16)" fill="rgb(0,0,0)" shaper:cutDepth="0.001" stroke-linecap="round" stroke-linejoin="round" /></svg>