<?xml version="1.0" encoding="utf-8"?>
<!-- Generator: Fusion 360, Shaper Origin Export Add-In, Version 1.6.2  -->
<svg xmlns="http://www.w3.org/2000/svg" xmlns:xlink="http://www.w3.org/1999/xlink" xmlns:shaper="http://www.shapertools.com/namespaces/shaper" shaper:fusionaddin="version:1.6.2" width="6.25cm" height="3.2cm" version="1.1" x="0cm" y="0cm" viewBox="0 0 6.25 3.2" enable-background="new 0 0 6.25 3.2" xml:space="preserve"><path d="M-0.1,3.1 L-0.1,0.1 A0.1,0.1 180 0,1 -0,0 L6.05,0 A0.1,0.1 270 0,1 6.15,0.1 L6.15,3.1 A0.1,0.1 0 0,1 6.05,3.2 L0,3.2 A0.1,0.1 90 0,1 -0.1,3.1z" transform="matrix(1,0,0,-1,0.1,3.2)" fill="rgb(0,0,0)" shaper:cutDepth="0.001" stroke-linecap="round" stroke-linejoin="round" /><path d="M3.585343,1.59 a1.152357,1.152357 0 1,1 2.3047141,0 a1.152357,1.152357 0 1,1 -2.3047141,0z" transform="matrix(1,0,0,-1,0.1,3.2)" fill="rgb(255,255,255)" stroke="rgb(0,0,0)" stroke-width="0.0010cm" stroke-linecap="round" stroke-linejoin="round" shaper:cutDepth="0.001" /></svg>