<?xml version="1.0" encoding="utf-8"?>
<!-- Generator: Fusion 360, Shaper Origin Export Add-In, Version 1.6.2  -->
<svg xmlns="http://www.w3.org/2000/svg" xmlns:xlink="http://www.w3.org/1999/xlink" xmlns:shaper="http://www.shapertools.com/namespaces/shaper" shaper:fusionaddin="version:1.6.2" width="14.15cm" height="14.15cm" version="1.1" x="0cm" y="0cm" viewBox="0 0 14.15 14.15" enable-background="new 0 0 14.15 14.15" xml:space="preserve"><path d="M13.36,0 A0.395,0.395 270 0,1 13.755,0.395 L13.755,13.755 A0.395,0.395 0 0,1 13.36,14.15 L0,14.15 A0.395,0.395 90 0,1 -0.395,13.755 L-0.395,0.395 A0.395,0.395 180 0,1 -0,0 L13.36,0z" transform="matrix(1,0,0,-1,0.395,14.15)" fill="rgb(0,0,0)" shaper:cutDepth="0.001" stroke-linecap="round" stroke-linejoin="round" /><path d="M-0.25,13.755 a0.25,0.25 0 1,1 0.5,0 a0.25,0.25 0 1,1 -0.5,0z" transform="matrix(1,0,0,-1,0.395,14.15)" fill="rgb(255,255,255)" stroke="rgb(0,0,0)" stroke-width="0.0010cm" stroke-linecap="round" stroke-linejoin="round" shaper:cutDepth="0.001" /><path d="M13.11,0.395 a0.25,0.25 0 1,1 0.5,0 a0.25,0.25 0 1,1 -0.5,0z" transform="matrix(1,0,0,-1,0.395,14.15)" fill="rgb(255,255,255)" stroke="rgb(0,0,0)" stroke-width="0.0010cm" stroke-linecap="round" stroke-linejoin="round" shaper:cutDepth="0.001" /><path d="M1.0054681,1.4004681 L1.0054681,1.4004681 1.0564847,1.3511429 1.1091541,1.3035465 1.1634362,1.2577153 1.2192898,1.2136838 1.2766724,1.1714857 1.3355406,1.1311529 1.3958495,1.0927161 1.4575534,1.0562044 1.5206055,1.0216455 1.5849578,0.9890658 1.6505615,0.95849 1.7173668,0.9299412 1.7853229,0.9034412 1.8543783,0.8790101 1.9244804,0.8566664 1.9955762,0.8364271 2.0676114,0.8183076 2.1405316,0.8023216 2.2142813,0.7884813 2.2888044,0.7767971 2.3640444,0.7672781 2.4399442,0.7599313 2.5164462,0.7547623 2.5934921,0.7517752 2.6710236,0.750972 2.7489817,0.7523536 2.8273073,0.7559188 2.9059408,0.7616649 2.9848226,0.7695875 3.0638928,0.7796806 3.1430912,0.7919367 3.2223578,0.8063462 3.3016324,0.8228984 3.3808548,0.8415806 3.4599648,0.8623787 3.5389023,0.8852769 3.6176074,0.9102577 3.6960203,0.9373022 3.7740815,0.9663899 3.8517317,0.9974987 3.9289119,1.0306049 4.0055636,1.0656835 4.0816284,1.1027077 4.1570488,1.1416495 4.2317673,1.1824793 4.3057272,1.225166 4.3788724,1.2696774 4.4511474,1.3159794 4.5224972,1.3640371 4.5928676,1.413814 4.6622053,1.4652721 4.7304576,1.5183724 4.7975726,1.5730747 4.8634993,1.6293373 4.9281878,1.6871176 4.9915889,1.7463717 5.0536544,1.8070545 5.1143372,1.86912 5.1735913,1.9325211 5.2313716,1.9972095 5.2876342,2.0631363 5.3423365,2.1302513 5.3954368,2.1985036 5.4468949,2.2678412 5.4966717,2.3382117 5.5447294,2.4095615 5.5910315,2.4818365 5.6355429,2.5549817 5.6782296,2.6289416 5.7190594,2.7036601 5.7580012,2.7790804 5.7950254,2.8551453 5.8301039,2.931797 5.8632102,3.0089772 5.8943189,3.0866274 5.9234066,3.1646886 5.9504512,3.2431015 5.975432,3.3218066 5.9983302,3.4007441 6.0191282,3.4798541 6.0378105,3.5590765 6.0543627,3.638351 6.0687722,3.7176177 6.0810282,3.7968161 6.0911214,3.8758863 6.099044,3.954768 6.1047901,4.0334016 6.1083553,4.1117272 6.1097368,4.1896853 6.1089337,4.2672168 6.1059466,4.3442627 6.1007776,4.4207646 6.0934308,4.4966645 6.0839117,4.5719045 6.0722276,4.6464276 6.0583873,4.7201773 6.0424013,4.7930974 6.0242818,4.8651327 6.0040425,4.9362284 5.9816988,5.0063306 5.9572677,5.075386 5.9307676,5.1433421 5.9022189,5.2101474 5.871643,5.2757511 5.8390633,5.3401034 5.8045045,5.4031555 5.7679928,5.4648594 5.729556,5.5251683 5.6892232,5.5840365 5.647025,5.6414191 5.6029936,5.6972727 5.5571623,5.7515548 5.509566,5.8042241 5.4602408,5.8552408 5.4092241,5.904566 5.3565548,5.9521623 5.3022727,5.9979936 5.2464191,6.042025 5.1890365,6.0842232 5.1301683,6.124556 5.0698594,6.1629928 5.0081555,6.1995045 4.9451034,6.2340633 4.8807511,6.266643 4.8151474,6.2972189 4.7483421,6.3257676 4.680386,6.3522677 4.6113306,6.3766988 4.5412284,6.3990425 4.4701327,6.4192818 4.3980974,6.4374013 4.3251773,6.4533873 4.2514276,6.4672276 4.1769045,6.4789117 4.1016645,6.4884308 4.0257646,6.4957776 3.9492627,6.5009466 3.8722168,6.5039337 3.7946853,6.5047368 3.7167272,6.5033553 3.6384016,6.4997901 3.559768,6.494044 3.4808863,6.4861214 3.4018161,6.4760282 3.3226177,6.4637722 3.243351,6.4493627 3.1640765,6.4328105 3.0848541,6.4141282 3.0057441,6.3933302 2.9268066,6.370432 2.8481015,6.3454512 2.7696886,6.3184066 2.6916274,6.2893189 2.6139772,6.2582102 2.536797,6.2251039 2.4601453,6.1900254 2.3840804,6.1530012 2.3086601,6.1140594 2.2339416,6.0732296 2.1599817,6.0305429 2.0868365,5.9860315 2.0145615,5.9397294 1.9432117,5.8916717 1.8728412,5.8418949 1.8035036,5.7904368 1.7352513,5.7373365 1.6681363,5.6826342 1.6022095,5.6263716 1.5375211,5.5685913 1.47412,5.5093372 1.4120545,5.4486544 1.3513717,5.3865889 1.2921176,5.3231878 1.2343373,5.2584993 1.1780747,5.1925726 1.1233724,5.1254576 1.0702721,5.0572053 1.018814,4.9878676 0.9690371,4.9174972 0.9209794,4.8461474 0.8746774,4.7738724 0.830166,4.7007272 0.7874793,4.6267673 0.7466495,4.5520488 0.7077077,4.4766284 0.6706835,4.4005636 0.6356049,4.3239119 0.6024987,4.2467317 0.5713899,4.1690815 0.5423022,4.0910203 0.5152577,4.0126074 0.4902769,3.9339023 0.4673787,3.8549648 0.4465806,3.7758548 0.4278984,3.6966324 0.4113462,3.6173578 0.3969367,3.5380912 0.3846806,3.4588928 0.3745875,3.3798226 0.3666649,3.3009408 0.3609188,3.2223073 0.3573536,3.1439817 0.355972,3.0660236 0.3567752,2.9884921 0.3597623,2.9114462 0.3649313,2.8349442 0.3722781,2.7590444 0.3817971,2.6838044 0.3934813,2.6092813 0.4073216,2.5355316 0.4233076,2.4626114 0.4414271,2.3905762 0.4616664,2.3194804 0.4840101,2.2493783 0.5084412,2.1803229 0.5349412,2.1123668 0.56349,2.0455615 0.5940658,1.9799578 0.6266455,1.9156055 0.6612044,1.8525534 0.6977161,1.7908495 0.7361529,1.7305406 0.7764857,1.6716724 0.8186838,1.6142898 0.8627153,1.5584362 0.9085465,1.5041541 0.9561429,1.4514847 1.0054681,1.4004681z" transform="matrix(1,0,0,-1,0.395,14.15)" fill="rgb(255,255,255)" stroke="rgb(0,0,0)" stroke-width="0.0010cm" stroke-linecap="round" stroke-linejoin="round" shaper:cutDepth="0.001" /><path d="M12.3545319,12.7495319 L12.3545319,12.7495319 12.3035153,12.7988571 12.2508459,12.8464535 12.1965638,12.8922847 12.1407102,12.9363162 12.0833276,12.9785143 12.0244594,13.0188471 11.9641505,13.0572839 11.9024466,13.0937956 11.8393945,13.1283545 11.7750422,13.1609342 11.7094385,13.19151 11.6426332,13.2200588 11.5746771,13.2465588 11.5056217,13.2709899 11.4355196,13.2933336 11.3644238,13.3135729 11.2923886,13.3316924 11.2194684,13.3476784 11.1457187,13.3615187 11.0711956,13.3732029 10.9959556,13.3827219 10.9200558,13.3900687 10.8435538,13.3952377 10.7665079,13.3982248 10.6889764,13.399028 10.6110183,13.3976464 10.5326927,13.3940812 10.4540592,13.3883351 10.3751774,13.3804125 10.2961072,13.3703194 10.2169088,13.3580633 10.1376422,13.3436538 10.0583676,13.3271016 9.9791452,13.3084194 9.9000352,13.2876213 9.8210977,13.2647231 9.7423926,13.2397423 9.6639797,13.2126978 9.5859185,13.1836101 9.5082683,13.1525013 9.4310881,13.1193951 9.3544364,13.0843165 9.2783716,13.0472923 9.2029512,13.0083505 9.1282327,12.9675207 9.0542728,12.924834 8.9811276,12.8803226 8.9088526,12.8340206 8.8375028,12.7859629 8.7671324,12.736186 8.6977947,12.6847279 8.6295424,12.6316276 8.5624274,12.5769253 8.4965007,12.5206627 8.4318122,12.4628824 8.3684111,12.4036283 8.3063456,12.3429455 8.2456628,12.28088 8.1864087,12.2174789 8.1286284,12.1527905 8.0723658,12.0868637 8.0176635,12.0197487 7.9645632,11.9514964 7.9131051,11.8821588 7.8633283,11.8117883 7.8152706,11.7404385 7.7689685,11.6681635 7.7244571,11.5950183 7.6817704,11.5210584 7.6409406,11.4463399 7.6019988,11.3709196 7.5649746,11.2948547 7.5298961,11.218203 7.4967898,11.1410228 7.4656811,11.0633726 7.4365934,10.9853114 7.4095488,10.9068985 7.384568,10.8281934 7.3616698,10.7492559 7.3408718,10.6701459 7.3221895,10.5909235 7.3056373,10.511649 7.2912278,10.4323823 7.2789718,10.3531839 7.2688786,10.2741137 7.260956,10.195232 7.2552099,10.1165984 7.2516447,10.0382728 7.2502632,9.9603147 7.2510663,9.8827832 7.2540534,9.8057373 7.2592224,9.7292354 7.2665692,9.6533355 7.2760883,9.5780955 7.2877724,9.5035724 7.3016127,9.4298227 7.3175987,9.3569026 7.3357182,9.2848673 7.3559575,9.2137716 7.3783012,9.1436694 7.4027323,9.074614 7.4292324,9.0066579 7.4577811,8.9398526 7.488357,8.8742489 7.5209367,8.8098966 7.5554955,8.7468445 7.5920072,8.6851406 7.630444,8.6248317 7.6707768,8.5659635 7.712975,8.5085809 7.7570064,8.4527273 7.8028377,8.3984452 7.850434,8.3457759 7.8997592,8.2947592 7.9507759,8.245434 8.0034452,8.1978377 8.0577273,8.1520064 8.1135809,8.107975 8.1709635,8.0657768 8.2298317,8.025444 8.2901406,7.9870072 8.3518445,7.9504955 8.4148966,7.9159367 8.4792489,7.883357 8.5448526,7.8527811 8.6116579,7.8242324 8.679614,7.7977323 8.7486694,7.7733012 8.8187716,7.7509575 8.8898673,7.7307182 8.9619026,7.7125987 9.0348227,7.6966127 9.1085724,7.6827724 9.1830955,7.6710883 9.2583355,7.6615692 9.3342354,7.6542224 9.4107373,7.6490534 9.4877832,7.6460663 9.5653147,7.6452632 9.6432728,7.6466447 9.7215984,7.6502099 9.800232,7.655956 9.8791137,7.6638786 9.9581839,7.6739718 10.0373823,7.6862278 10.116649,7.7006373 10.1959235,7.7171895 10.2751459,7.7358718 10.3542559,7.7566698 10.4331934,7.779568 10.5118985,7.8045488 10.5903114,7.8315934 10.6683726,7.8606811 10.7460228,7.8917898 10.823203,7.9248961 10.8998547,7.9599746 10.9759196,7.9969988 11.0513399,8.0359406 11.1260584,8.0767704 11.2000183,8.1194571 11.2731635,8.1639685 11.3454385,8.2102706 11.4167883,8.2583283 11.4871588,8.3081051 11.5564964,8.3595632 11.6247487,8.4126635 11.6918637,8.4673658 11.7577905,8.5236284 11.8224789,8.5814087 11.88588,8.6406628 11.9479455,8.7013456 12.0086283,8.7634111 12.0678824,8.8268122 12.1256627,8.8915007 12.1819253,8.9574274 12.2366276,9.0245424 12.2897279,9.0927947 12.341186,9.1621324 12.3909629,9.2325028 12.4390206,9.3038526 12.4853226,9.3761276 12.529834,9.4492728 12.5725207,9.5232327 12.6133505,9.5979512 12.6522923,9.6733716 12.6893165,9.7494364 12.7243951,9.8260881 12.7575013,9.9032683 12.7886101,9.9809185 12.8176978,10.0589797 12.8447423,10.1373926 12.8697231,10.2160977 12.8926213,10.2950352 12.9134194,10.3741452 12.9321016,10.4533676 12.9486538,10.5326422 12.9630633,10.6119088 12.9753194,10.6911072 12.9854125,10.7701774 12.9933351,10.8490592 12.9990812,10.9276927 13.0026464,11.0060183 13.004028,11.0839764 13.0032248,11.1615079 13.0002377,11.2385538 12.9950687,11.3150558 12.9877219,11.3909556 12.9782029,11.4661956 12.9665187,11.5407187 12.9526784,11.6144684 12.9366924,11.6873886 12.9185729,11.7594238 12.8983336,11.8305196 12.8759899,11.9006217 12.8515588,11.9696771 12.8250588,12.0376332 12.79651,12.1044385 12.7659342,12.1700422 12.7333545,12.2343945 12.6987956,12.2974466 12.6622839,12.3591505 12.6238471,12.4194594 12.5835143,12.4783276 12.5413162,12.5357102 12.4972847,12.5915638 12.4514535,12.6458459 12.4038571,12.6985153 12.3545319,12.7495319z" transform="matrix(1,0,0,-1,0.395,14.15)" fill="rgb(255,255,255)" stroke="rgb(0,0,0)" stroke-width="0.0010cm" stroke-linecap="round" stroke-linejoin="round" shaper:cutDepth="0.001" /><path d="M12.3545319,1.4004681 L12.3545319,1.4004681 12.4038571,1.4514847 12.4514535,1.5041541 12.4972847,1.5584362 12.5413162,1.6142898 12.5835143,1.6716724 12.6238471,1.7305406 12.6622839,1.7908495 12.6987956,1.8525534 12.7333545,1.9156055 12.7659342,1.9799578 12.79651,2.0455615 12.8250588,2.1123668 12.8515588,2.1803229 12.8759899,2.2493783 12.8983336,2.3194804 12.9185729,2.3905762 12.9366924,2.4626114 12.9526784,2.5355316 12.9665187,2.6092813 12.9782029,2.6838044 12.9877219,2.7590444 12.9950687,2.8349442 13.0002377,2.9114462 13.0032248,2.9884921 13.004028,3.0660236 13.0026464,3.1439817 12.9990812,3.2223073 12.9933351,3.3009408 12.9854125,3.3798226 12.9753194,3.4588928 12.9630633,3.5380912 12.9486538,3.6173578 12.9321016,3.6966324 12.9134194,3.7758548 12.8926213,3.8549648 12.8697231,3.9339023 12.8447423,4.0126074 12.8176978,4.0910203 12.7886101,4.1690815 12.7575013,4.2467317 12.7243951,4.3239119 12.6893165,4.4005636 12.6522923,4.4766284 12.6133505,4.5520488 12.5725207,4.6267673 12.529834,4.7007272 12.4853226,4.7738724 12.4390206,4.8461474 12.3909629,4.9174972 12.341186,4.9878676 12.2897279,5.0572053 12.2366276,5.1254576 12.1819253,5.1925726 12.1256627,5.2584993 12.0678824,5.3231878 12.0086283,5.3865889 11.9479455,5.4486544 11.88588,5.5093372 11.8224789,5.5685913 11.7577905,5.6263716 11.6918637,5.6826342 11.6247487,5.7373365 11.5564964,5.7904368 11.4871588,5.8418949 11.4167883,5.8916717 11.3454385,5.9397294 11.2731635,5.9860315 11.2000183,6.0305429 11.1260584,6.0732296 11.0513399,6.1140594 10.9759196,6.1530012 10.8998547,6.1900254 10.823203,6.2251039 10.7460228,6.2582102 10.6683726,6.2893189 10.5903114,6.3184066 10.5118985,6.3454512 10.4331934,6.370432 10.3542559,6.3933302 10.2751459,6.4141282 10.1959235,6.4328105 10.116649,6.4493627 10.0373823,6.4637722 9.9581839,6.4760282 9.8791137,6.4861214 9.800232,6.494044 9.7215984,6.4997901 9.6432728,6.5033553 9.5653147,6.5047368 9.4877832,6.5039337 9.4107373,6.5009466 9.3342354,6.4957776 9.2583355,6.4884308 9.1830955,6.4789117 9.1085724,6.4672276 9.0348227,6.4533873 8.9619026,6.4374013 8.8898673,6.4192818 8.8187716,6.3990425 8.7486694,6.3766988 8.679614,6.3522677 8.6116579,6.3257676 8.5448526,6.2972189 8.4792489,6.266643 8.4148966,6.2340633 8.3518445,6.1995045 8.2901406,6.1629928 8.2298317,6.124556 8.1709635,6.0842232 8.1135809,6.042025 8.0577273,5.9979936 8.0034452,5.9521623 7.9507759,5.904566 7.8997592,5.8552408 7.850434,5.8042241 7.8028377,5.7515548 7.7570064,5.6972727 7.712975,5.6414191 7.6707768,5.5840365 7.630444,5.5251683 7.5920072,5.4648594 7.5554955,5.4031555 7.5209367,5.3401034 7.488357,5.2757511 7.4577811,5.2101474 7.4292324,5.1433421 7.4027323,5.075386 7.3783012,5.0063306 7.3559575,4.9362284 7.3357182,4.8651327 7.3175987,4.7930974 7.3016127,4.7201773 7.2877724,4.6464276 7.2760883,4.5719045 7.2665692,4.4966645 7.2592224,4.4207646 7.2540534,4.3442627 7.2510663,4.2672168 7.2502632,4.1896853 7.2516447,4.1117272 7.2552099,4.0334016 7.260956,3.954768 7.2688786,3.8758863 7.2789718,3.7968161 7.2912278,3.7176177 7.3056373,3.638351 7.3221895,3.5590765 7.3408718,3.4798541 7.3616698,3.4007441 7.384568,3.3218066 7.4095488,3.2431015 7.4365934,3.1646886 7.4656811,3.0866274 7.4967898,3.0089772 7.5298961,2.931797 7.5649746,2.8551453 7.6019988,2.7790804 7.6409406,2.7036601 7.6817704,2.6289416 7.7244571,2.5549817 7.7689685,2.4818365 7.8152706,2.4095615 7.8633283,2.3382117 7.9131051,2.2678412 7.9645632,2.1985036 8.0176635,2.1302513 8.0723658,2.0631363 8.1286284,1.9972095 8.1864087,1.9325211 8.2456628,1.86912 8.3063456,1.8070545 8.3684111,1.7463717 8.4318122,1.6871176 8.4965007,1.6293373 8.5624274,1.5730747 8.6295424,1.5183724 8.6977947,1.4652721 8.7671324,1.413814 8.8375028,1.3640371 8.9088526,1.3159794 8.9811276,1.2696774 9.0542728,1.225166 9.1282327,1.1824793 9.2029512,1.1416495 9.2783716,1.1027077 9.3544364,1.0656835 9.4310881,1.0306049 9.5082683,0.9974987 9.5859185,0.9663899 9.6639797,0.9373022 9.7423926,0.9102577 9.8210977,0.8852769 9.9000352,0.8623787 9.9791452,0.8415806 10.0583676,0.8228984 10.1376422,0.8063462 10.2169088,0.7919367 10.2961072,0.7796806 10.3751774,0.7695875 10.4540592,0.7616649 10.5326927,0.7559188 10.6110183,0.7523536 10.6889764,0.750972 10.7665079,0.7517752 10.8435538,0.7547623 10.9200558,0.7599313 10.9959556,0.7672781 11.0711956,0.7767971 11.1457187,0.7884813 11.2194684,0.8023216 11.2923886,0.8183076 11.3644238,0.8364271 11.4355196,0.8566664 11.5056217,0.8790101 11.5746771,0.9034412 11.6426332,0.9299412 11.7094385,0.95849 11.7750422,0.9890658 11.8393945,1.0216455 11.9024466,1.0562044 11.9641505,1.0927161 12.0244594,1.1311529 12.0833276,1.1714857 12.1407102,1.2136838 12.1965638,1.2577153 12.2508459,1.3035465 12.3035153,1.3511429 12.3545319,1.4004681z" transform="matrix(1,0,0,-1,0.395,14.15)" fill="rgb(255,255,255)" stroke="rgb(0,0,0)" stroke-width="0.0010cm" stroke-linecap="round" stroke-linejoin="round" shaper:cutDepth="0.001" /><path d="M-0.25,0.395 a0.25,0.25 0 1,1 0.5,0 a0.25,0.25 0 1,1 -0.5,0z" transform="matrix(1,0,0,-1,0.395,14.15)" fill="rgb(255,255,255)" stroke="rgb(0,0,0)" stroke-width="0.0010cm" stroke-linecap="round" stroke-linejoin="round" shaper:cutDepth="0.001" /><path d="M13.11,13.755 a0.25,0.25 0 1,1 0.5,0 a0.25,0.25 0 1,1 -0.5,0z" transform="matrix(1,0,0,-1,0.395,14.15)" fill="rgb(255,255,255)" stroke="rgb(0,0,0)" stroke-width="0.0010cm" stroke-linecap="round" stroke-linejoin="round" shaper:cutDepth="0.001" /><path d="M1.0054681,12.7495319 L1.0054681,12.7495319 0.9561429,12.6985153 0.9085465,12.6458459 0.8627153,12.5915638 0.8186838,12.5357102 0.7764857,12.4783276 0.7361529,12.4194594 0.6977161,12.3591505 0.6612044,12.2974466 0.6266455,12.2343945 0.5940658,12.1700422 0.56349,12.1044385 0.5349412,12.0376332 0.5084412,11.9696771 0.4840101,11.9006217 0.4616664,11.8305196 0.4414271,11.7594238 0.4233076,11.6873886 0.4073216,11.6144684 0.3934813,11.5407187 0.3817971,11.4661956 0.3722781,11.3909556 0.3649313,11.3150558 0.3597623,11.2385538 0.3567752,11.1615079 0.355972,11.0839764 0.3573536,11.0060183 0.3609188,10.9276927 0.3666649,10.8490592 0.3745875,10.7701774 0.3846806,10.6911072 0.3969367,10.6119088 0.4113462,10.5326422 0.4278984,10.4533676 0.4465806,10.3741452 0.4673787,10.2950352 0.4902769,10.2160977 0.5152577,10.1373926 0.5423022,10.0589797 0.5713899,9.9809185 0.6024987,9.9032683 0.6356049,9.8260881 0.6706835,9.7494364 0.7077077,9.6733716 0.7466495,9.5979512 0.7874793,9.5232327 0.830166,9.4492728 0.8746774,9.3761276 0.9209794,9.3038526 0.9690371,9.2325028 1.018814,9.1621324 1.0702721,9.0927947 1.1233724,9.0245424 1.1780747,8.9574274 1.2343373,8.8915007 1.2921176,8.8268122 1.3513717,8.7634111 1.4120545,8.7013456 1.47412,8.6406628 1.5375211,8.5814087 1.6022095,8.5236284 1.6681363,8.4673658 1.7352513,8.4126635 1.8035036,8.3595632 1.8728412,8.3081051 1.9432117,8.2583283 2.0145615,8.2102706 2.0868365,8.1639685 2.1599817,8.1194571 2.2339416,8.0767704 2.3086601,8.0359406 2.3840804,7.9969988 2.4601453,7.9599746 2.536797,7.9248961 2.6139772,7.8917898 2.6916274,7.8606811 2.7696886,7.8315934 2.8481015,7.8045488 2.9268066,7.779568 3.0057441,7.7566698 3.0848541,7.7358718 3.1640765,7.7171895 3.243351,7.7006373 3.3226177,7.6862278 3.4018161,7.6739718 3.4808863,7.6638786 3.559768,7.655956 3.6384016,7.6502099 3.7167272,7.6466447 3.7946853,7.6452632 3.8722168,7.6460663 3.9492627,7.6490534 4.0257646,7.6542224 4.1016645,7.6615692 4.1769045,7.6710883 4.2514276,7.6827724 4.3251773,7.6966127 4.3980974,7.7125987 4.4701327,7.7307182 4.5412284,7.7509575 4.6113306,7.7733012 4.680386,7.7977323 4.7483421,7.8242324 4.8151474,7.8527811 4.8807511,7.883357 4.9451034,7.9159367 5.0081555,7.9504955 5.0698594,7.9870072 5.1301683,8.025444 5.1890365,8.0657768 5.2464191,8.107975 5.3022727,8.1520064 5.3565548,8.1978377 5.4092241,8.245434 5.4602408,8.2947592 5.509566,8.3457759 5.5571623,8.3984452 5.6029936,8.4527273 5.647025,8.5085809 5.6892232,8.5659635 5.729556,8.6248317 5.7679928,8.6851406 5.8045045,8.7468445 5.8390633,8.8098966 5.871643,8.8742489 5.9022189,8.9398526 5.9307676,9.0066579 5.9572677,9.074614 5.9816988,9.1436694 6.0040425,9.2137716 6.0242818,9.2848673 6.0424013,9.3569026 6.0583873,9.4298227 6.0722276,9.5035724 6.0839117,9.5780955 6.0934308,9.6533355 6.1007776,9.7292354 6.1059466,9.8057373 6.1089337,9.8827832 6.1097368,9.9603147 6.1083553,10.0382728 6.1047901,10.1165984 6.099044,10.195232 6.0911214,10.2741137 6.0810282,10.3531839 6.0687722,10.4323823 6.0543627,10.511649 6.0378105,10.5909235 6.0191282,10.6701459 5.9983302,10.7492559 5.975432,10.8281934 5.9504512,10.9068985 5.9234066,10.9853114 5.8943189,11.0633726 5.8632102,11.1410228 5.8301039,11.218203 5.7950254,11.2948547 5.7580012,11.3709196 5.7190594,11.4463399 5.6782296,11.5210584 5.6355429,11.5950183 5.5910315,11.6681635 5.5447294,11.7404385 5.4966717,11.8117883 5.4468949,11.8821588 5.3954368,11.9514964 5.3423365,12.0197487 5.2876342,12.0868637 5.2313716,12.1527905 5.1735913,12.2174789 5.1143372,12.28088 5.0536544,12.3429455 4.9915889,12.4036283 4.9281878,12.4628824 4.8634993,12.5206627 4.7975726,12.5769253 4.7304576,12.6316276 4.6622053,12.6847279 4.5928676,12.736186 4.5224972,12.7859629 4.4511474,12.8340206 4.3788724,12.8803226 4.3057272,12.924834 4.2317673,12.9675207 4.1570488,13.0083505 4.0816284,13.0472923 4.0055636,13.0843165 3.9289119,13.1193951 3.8517317,13.1525013 3.7740815,13.1836101 3.6960203,13.2126978 3.6176074,13.2397423 3.5389023,13.2647231 3.4599648,13.2876213 3.3808548,13.3084194 3.3016324,13.3271016 3.2223578,13.3436538 3.1430912,13.3580633 3.0638928,13.3703194 2.9848226,13.3804125 2.9059408,13.3883351 2.8273073,13.3940812 2.7489817,13.3976464 2.6710236,13.399028 2.5934921,13.3982248 2.5164462,13.3952377 2.4399442,13.3900687 2.3640444,13.3827219 2.2888044,13.3732029 2.2142813,13.3615187 2.1405316,13.3476784 2.0676114,13.3316924 1.9955762,13.3135729 1.9244804,13.2933336 1.8543783,13.2709899 1.7853229,13.2465588 1.7173668,13.2200588 1.6505615,13.19151 1.5849578,13.1609342 1.5206055,13.1283545 1.4575534,13.0937956 1.3958495,13.0572839 1.3355406,13.0188471 1.2766724,12.9785143 1.2192898,12.9363162 1.1634362,12.8922847 1.1091541,12.8464535 1.0564847,12.7988571 1.0054681,12.7495319z" transform="matrix(1,0,0,-1,0.395,14.15)" fill="rgb(255,255,255)" stroke="rgb(0,0,0)" stroke-width="0.0010cm" stroke-linecap="round" stroke-linejoin="round" shaper:cutDepth="0.001" /></svg>