<?xml version="1.0" encoding="utf-8"?>
<!-- Generator: Fusion 360, Shaper Origin Export Add-In, Version 1.6.2  -->
<svg xmlns="http://www.w3.org/2000/svg" xmlns:xlink="http://www.w3.org/1999/xlink" xmlns:shaper="http://www.shapertools.com/namespaces/shaper" shaper:fusionaddin="version:1.6.2" width="14.16cm" height="14.16cm" version="1.1" x="0cm" y="0cm" viewBox="0 0 14.16 14.16" enable-background="new 0 0 14.16 14.16" xml:space="preserve"><path d="M13.36,0 A0.4,0.4 270 0,1 13.76,0.4 L13.76,13.76 A0.4,0.4 0 0,1 13.36,14.16 L-0,14.16 A0.4,0.4 90 0,1 -0.4,13.76 L-0.4,0.4 A0.4,0.4 180 0,1 -0,-0 L13.36,0z" transform="matrix(1,0,0,-1,0.4,14.16)" fill="rgb(0,0,0)" shaper:cutDepth="0.001" stroke-linecap="round" stroke-linejoin="round" /><path d="M13.165,13.76 a0.195,0.195 0 1,1 0.39,0 a0.195,0.195 0 1,1 -0.39,0z" transform="matrix(1,0,0,-1,0.4,14.16)" fill="rgb(255,255,255)" stroke="rgb(0,0,0)" stroke-width="0.0010cm" stroke-linecap="round" stroke-linejoin="round" shaper:cutDepth="0.001" /><path d="M-0.195,0.4 a0.195,0.195 0 1,1 0.39,0 a0.195,0.195 0 1,1 -0.39,0z" transform="matrix(1,0,0,-1,0.4,14.16)" fill="rgb(255,255,255)" stroke="rgb(0,0,0)" stroke-width="0.0010cm" stroke-linecap="round" stroke-linejoin="round" shaper:cutDepth="0.001" /><path d="M-0.195,13.76 a0.195,0.195 0 1,1 0.39,0 a0.195,0.195 0 1,1 -0.39,0z" transform="matrix(1,0,0,-1,0.4,14.16)" fill="rgb(255,255,255)" stroke="rgb(0,0,0)" stroke-width="0.0010cm" stroke-linecap="round" stroke-linejoin="round" shaper:cutDepth="0.001" /><path d="M2.9949863,7.7987923 a3.825,3.825 0 1,1 7.65,0 a3.825,3.825 0 1,1 -7.65,0z" transform="matrix(1,0,0,-1,0.4,14.16)" fill="rgb(255,255,255)" stroke="rgb(0,0,0)" stroke-width="0.0010cm" stroke-linecap="round" stroke-linejoin="round" shaper:cutDepth="0.001" /><path d="M13.165,0.4 a0.195,0.195 0 1,1 0.39,0 a0.195,0.195 0 1,1 -0.39,0z" transform="matrix(1,0,0,-1,0.4,14.16)" fill="rgb(255,255,255)" stroke="rgb(0,0,0)" stroke-width="0.0010cm" stroke-linecap="round" stroke-linejoin="round" shaper:cutDepth="0.001" /></svg>