<?xml version="1.0" encoding="utf-8"?>
<!-- Generator: Fusion 360, Shaper Origin Export Add-In, Version 1.7.0  -->
<svg xmlns="http://www.w3.org/2000/svg" xmlns:xlink="http://www.w3.org/1999/xlink" xmlns:shaper="http://www.shapertools.com/namespaces/shaper" shaper:fusionaddin="version:1.7.0" width="11.33cm" height="11.33cm" version="1.1" x="0cm" y="0cm" viewBox="0 0 11.33 11.33" enable-background="new 0 0 11.33 11.33" xml:space="preserve"><path d="M6.2190853,1.7847821 L-4.4409147,1.7847821 A0.335,0.335 90 0,1 -4.7759147,1.4497821 L-4.7759147,-9.2102179 A0.335,0.335 180 0,1 -4.4409147,-9.5452179 L6.2190853,-9.5452179 A0.335,0.335 270 0,1 6.5540853,-9.2102179 L6.5540853,1.4497821 A0.335,0.335 0 0,1 6.2190853,1.7847821z" transform="matrix(1,0,0,-1,4.7759147,1.7847821)" fill="rgb(0,0,0)" shaper:cutDepth="0.1cm" stroke-linecap="round" stroke-linejoin="round" /><path d="M5.9940853,-9.2102179 a0.225,0.225 0 1,1 0.45,0 a0.225,0.225 0 1,1 -0.45,0z" transform="matrix(1,0,0,-1,4.7759147,1.7847821)" fill="rgb(255,255,255)" stroke="rgb(0,0,0)" stroke-width="0.0010cm" stroke-linecap="round" stroke-linejoin="round" shaper:cutDepth="0.1cm" /><path d="M-4.6659147,1.4497821 a0.225,0.225 0 1,1 0.45,0 a0.225,0.225 0 1,1 -0.45,0z" transform="matrix(1,0,0,-1,4.7759147,1.7847821)" fill="rgb(255,255,255)" stroke="rgb(0,0,0)" stroke-width="0.0010cm" stroke-linecap="round" stroke-linejoin="round" shaper:cutDepth="0.1cm" /><path d="M5.9940853,1.4497821 a0.225,0.225 0 1,1 0.45,0 a0.225,0.225 0 1,1 -0.45,0z" transform="matrix(1,0,0,-1,4.7759147,1.7847821)" fill="rgb(255,255,255)" stroke="rgb(0,0,0)" stroke-width="0.0010cm" stroke-linecap="round" stroke-linejoin="round" shaper:cutDepth="0.1cm" /><path d="M-1.9210133,-4.7090006 a3,3 0 1,1 6,0 a3,3 0 1,1 -6,0z" transform="matrix(1,0,0,-1,4.7759147,1.7847821)" fill="rgb(255,255,255)" stroke="rgb(0,0,0)" stroke-width="0.0010cm" stroke-linecap="round" stroke-linejoin="round" shaper:cutDepth="0.1cm" /><path d="M-4.6659147,-9.2102179 a0.225,0.225 0 1,1 0.45,0 a0.225,0.225 0 1,1 -0.45,0z" transform="matrix(1,0,0,-1,4.7759147,1.7847821)" fill="rgb(255,255,255)" stroke="rgb(0,0,0)" stroke-width="0.0010cm" stroke-linecap="round" stroke-linejoin="round" shaper:cutDepth="0.1cm" /></svg>