<?xml version="1.0" encoding="utf-8"?>
<!-- Generator: Fusion 360, Shaper Origin Export Add-In, Version 1.7.0  -->
<svg xmlns="http://www.w3.org/2000/svg" xmlns:xlink="http://www.w3.org/1999/xlink" xmlns:shaper="http://www.shapertools.com/namespaces/shaper" shaper:fusionaddin="version:1.7.0" width="5.9499602cm" height="3.3cm" version="1.1" x="0cm" y="0cm" viewBox="0 0 5.9499602 3.3" enable-background="new 0 0 5.9499602 3.3" xml:space="preserve"><path d="M-2.9749801,1.55 L-2.9749801,-1.55 A0.1,0.1 180 0,1 -2.8749801,-1.65 L2.8749801,-1.65 A0.1,0.1 270 0,1 2.9749801,-1.55 L2.9749801,1.55 A0.1,0.1 0 0,1 2.8749801,1.65 L-2.8749801,1.65 A0.1,0.1 90 0,1 -2.9749801,1.55z" transform="matrix(1,0,0,-1,2.9749801,1.65)" fill="rgb(0,0,0)" shaper:cutDepth="0.1cm" stroke-linecap="round" stroke-linejoin="round" /><path d="M0.4871741,0.05 a1.125,1.125 0 1,1 2.25,0 a1.125,1.125 0 1,1 -2.25,0z" transform="matrix(1,0,0,-1,2.9749801,1.65)" fill="rgb(255,255,255)" stroke="rgb(0,0,0)" stroke-width="0.0010cm" stroke-linecap="round" stroke-linejoin="round" shaper:cutDepth="0.1cm" /></svg>