<?xml version="1.0" encoding="utf-8"?>
<!-- Generator: Fusion 360, Shaper Origin Export Add-In, Version 1.7.0  -->
<svg xmlns="http://www.w3.org/2000/svg" xmlns:xlink="http://www.w3.org/1999/xlink" xmlns:shaper="http://www.shapertools.com/namespaces/shaper" shaper:fusionaddin="version:1.7.0" width="11.26cm" height="11.46cm" version="1.1" x="0cm" y="0cm" viewBox="0 0 11.26 11.46" enable-background="new 0 0 11.26 11.46" xml:space="preserve"><path d="M-5.4259798,4.6511775 L-5.63,4.6511775 -5.63,-1.2535757 A0.18485,0.18485 180 0,1 -5.44515,-1.4384257 A0.18485,0.18485 90 0,0 -5.2602944,-1.6232757 L-5.2602944,-4.4854921 A0.4,0.4 180 0,1 -5.1431371,-4.7683348 L-4.8683348,-5.0431371 A0.4,0.4 45 0,0 -4.7511775,-5.3259798 L-4.7511775,-5.33 A0.4,0.4 180 0,1 -4.3511775,-5.73 L4.1511775,-5.73 A0.4,0.4 270 0,1 4.5511775,-5.33 L4.5511775,-5.3259798 A0.4,0.4 180 0,0 4.6683348,-5.0431371 L4.9431371,-4.7683348 A0.4,0.4 135 0,0 5.2259798,-4.6511775 L5.23,-4.6511775 A0.4,0.4 270 0,1 5.63,-4.2511775 L5.63,1.7391466 A0.5,0.5 0 0,1 5.13,2.2391466 L4.1977801,2.2391466 A0.2,0.2 270 0,0 4.0563588,2.5805679 L4.2934547,2.8176639 A0.5,0.5 315 0,1 3.9957331,3.6680903 A0.4,0.4 263.5887806 0,0 3.6623998,3.934757 A0.5,0.5 19.0916029 0,1 3.2833064,4.2624153 A0.1,0.1 259.2333182 0,0 3.2019874,4.3606549 L3.2019874,5.23 A0.5,0.5 0 0,1 2.7019874,5.73 L-4.3511775,5.73 A0.4,0.4 90 0,1 -4.7511775,5.33 L-4.7511775,5.3259798 A0.4,0.4 0 0,0 -4.8683348,5.0431371 L-5.1431371,4.7683348 A0.4,0.4 315 0,0 -5.4259798,4.6511775z" transform="matrix(1,0,0,-1,5.63,5.73)" fill="rgb(0,0,0)" shaper:cutDepth="0.1cm" stroke-linecap="round" stroke-linejoin="round" /></svg>