<?xml version="1.0" encoding="utf-8"?>
<!-- Generator: Fusion 360, Shaper Origin Export Add-In, Version 1.7.0  -->
<svg xmlns="http://www.w3.org/2000/svg" xmlns:xlink="http://www.w3.org/1999/xlink" xmlns:shaper="http://www.shapertools.com/namespaces/shaper" shaper:fusionaddin="version:1.7.0" width="12.49886cm" height="7.4993917cm" version="1.1" x="0cm" y="0cm" viewBox="0 0 12.49886 7.4993917" enable-background="new 0 0 12.49886 7.4993917" xml:space="preserve"><path d="M3.0758337,3.7475305 L3.0758337,3.7475305 3.1508637,3.7463929 3.2258337,3.7431834 3.2258337,3.7431834 3.2775835,3.7397595 3.3302487,3.7352613 3.38379,3.7296373 3.438168,3.7228364 3.4933432,3.7148069 3.5492764,3.7054976 3.6059281,3.6948571 3.663259,3.682834 3.7212297,3.6693769 3.7798009,3.6544343 3.8389331,3.637955 3.898587,3.6198876 3.9587233,3.6001806 4.0193025,3.5787826 4.0802853,3.5556423 4.1416323,3.5307084 4.2033041,3.5039293 4.2652614,3.4752538 4.3271605,3.4447864 4.3883192,3.4128563 4.4486997,3.3795058 4.5082864,3.3447664 4.5670638,3.3086696 4.6250166,3.271247 4.6821292,3.2325301 4.7383862,3.1925503 4.793772,3.1513394 4.8482713,3.1089287 4.9018686,3.0653498 4.9545484,3.0206343 5.0062951,2.9748137 5.0570935,2.9279194 5.1069279,2.8799831 5.1557829,2.8310362 5.2036398,2.7811135 5.2504349,2.730294 5.2961498,2.6786166 5.3407858,2.626102 5.3843441,2.5727709 5.426826,2.5186437 5.4682329,2.4637412 5.5085659,2.4080839 5.5478265,2.3516924 5.5860159,2.2945873 5.6231354,2.2367893 5.6591863,2.1783189 5.6941698,2.1191968 5.7280873,2.0594435 5.7609401,1.9990796 5.7927294,1.9381258 5.8234565,1.8766027 5.8531227,1.8145308 5.8817293,1.7519308 5.9092777,1.6888233 5.935769,1.6252289 5.9612046,1.5611681 5.9858164,1.4960415 5.9979981,1.4625446 6.010084,1.4284104 6.022058,1.3936432 6.033904,1.3582473 6.0456062,1.3222272 6.0571486,1.2855871 6.0685151,1.2483314 6.0796898,1.2104644 6.0906566,1.1719904 6.1013997,1.1329139 6.1119031,1.0932392 6.1221506,1.0529705 6.1321265,1.0121122 6.1418146,0.9706688 6.151199,0.9286444 6.1602638,0.8860435 6.1689929,0.8428704 6.1773703,0.7991294 6.1853801,0.7548249 6.1930063,0.7099612 6.2002329,0.6645427 6.2070439,0.6185736 6.2134234,0.5720585 6.2193553,0.5250015 6.2248237,0.477407 6.2298125,0.4292794 6.2343059,0.380623 6.2382879,0.3314421 6.2417423,0.2817411 6.2446534,0.2315244 6.247005,0.1807962 6.2487812,0.129561 6.249966,0.077823 6.2505434,0.0255865 6.2504975,-0.0271439 6.2498123,-0.0803641 6.2484717,-0.1340697 6.2464692,-0.1880236 6.2438088,-0.2419888 6.2404903,-0.2959539 6.236514,-0.3499072 6.2318798,-0.4038371 6.2265877,-0.457732 6.2206379,-0.5115803 6.2140302,-0.5653704 6.2067649,-0.6190906 6.1988419,-0.6727294 6.1902612,-0.7262752 6.1810229,-0.7797163 6.1711271,-0.8330412 6.1605738,-0.8862382 6.1493629,-0.9392957 6.1374946,-0.9922022 6.1249689,-1.044946 6.1117858,-1.0975155 6.0979454,-1.1498991 6.0834477,-1.2020852 6.0682928,-1.2540621 6.0524806,-1.3058184 6.0360112,-1.3573424 6.0188848,-1.4086224 6.0011012,-1.4596468 5.9826605,-1.5104042 5.9635629,-1.5608828 5.9438082,-1.611071 5.9233967,-1.6609572 5.9023669,-1.7104399 5.88079,-1.7593625 5.8586783,-1.8077199 5.8360432,-1.8555094 5.812896,-1.9027282 5.789248,-1.9493737 5.7651107,-1.9954431 5.7404952,-2.0409336 5.7154131,-2.0858425 5.6898756,-2.130167 5.6638941,-2.1739046 5.63748,-2.2170523 5.6106445,-2.2596074 5.5833991,-2.3015673 5.5557551,-2.3429291 5.5277238,-2.3836902 5.4993166,-2.4238478 5.4705449,-2.4633991 5.4414199,-2.5023415 5.4119531,-2.5406721 5.3821557,-2.5783883 5.3520392,-2.6154873 5.3216148,-2.6519664 5.290894,-2.6878228 5.2598881,-2.7230538 5.2286084,-2.7576567 5.1970663,-2.7916286 5.1652682,-2.824972 5.1331112,-2.8577988 5.1005506,-2.8901511 5.0675877,-2.9220228 5.0342234,-2.9534075 5.0004589,-2.984299 4.9662953,-3.0146911 4.9317337,-3.0445774 4.8967751,-3.0739518 4.8614206,-3.102808 4.8256714,-3.1311397 4.7895285,-3.1589406 4.752993,-3.1862046 4.716066,-3.2129253 4.6787486,-3.2390964 4.6410418,-3.2647119 4.6029468,-3.2897653 4.5644647,-3.3142504 4.5255965,-3.338161 4.4863434,-3.3614908 4.4467064,-3.3842335 4.4066866,-3.406383 4.3662851,-3.4279329 4.325503,-3.4488769 4.2843414,-3.4692089 4.2428014,-3.4889225 4.2009131,-3.5079988 4.1587505,-3.5264016 4.1163251,-3.5441243 4.0736454,-3.5611616 4.0307201,-3.5775082 3.9875576,-3.5931588 3.9441667,-3.6081081 3.9005558,-3.6223508 3.8567336,-3.6358816 3.8127086,-3.6486951 3.7684894,-3.6607861 3.7240845,-3.6721493 3.6795027,-3.6827793 3.6347523,-3.6926709 3.5898421,-3.7018188 3.5447805,-3.7102175 3.4995763,-3.717862 3.4542378,-3.7247467 3.4087739,-3.7308665 3.3631929,-3.736216 3.3175035,-3.7407899 3.2717142,-3.7445829 3.2258337,-3.7475898 3.2258337,-3.7475898 3.150864,-3.7507909 3.0758337,-3.7518611 -3.0741663,-3.7518611 -3.0741663,-3.7518611 -3.1491956,-3.7508114 -3.2241663,-3.7476671 -3.2241663,-3.7476671 -3.2478074,-3.7462469 -3.2721357,-3.7445778 -3.2971395,-3.7426395 -3.3228072,-3.7404116 -3.3491271,-3.7378739 -3.3760876,-3.7350063 -3.4036772,-3.7317883 -3.431884,-3.7281997 -3.4606967,-3.7242203 -3.4901034,-3.7198298 -3.5200926,-3.715008 -3.5506526,-3.7097345 -3.5817719,-3.7039891 -3.6134387,-3.6977515 -3.6456415,-3.6910016 -3.6783686,-3.6837189 -3.7116083,-3.6758833 -3.7453492,-3.6674744 -3.7795795,-3.6584721 -3.8142875,-3.6488561 -3.8494618,-3.638606 -3.8850906,-3.6277016 -3.9211623,-3.6161227 -3.9576653,-3.603849 -3.9945879,-3.5908602 -4.0319186,-3.577136 -4.0696456,-3.5626563 -4.1077574,-3.5474007 -4.1462423,-3.5313489 -4.1850888,-3.5144808 -4.2242851,-3.496776 -4.2638196,-3.4782142 -4.3034075,-3.4589069 -4.3426947,-3.4390176 -4.3816755,-3.4185539 -4.4203454,-3.397523 -4.4586997,-3.3759317 -4.496734,-3.3537871 -4.5344436,-3.3310962 -4.571824,-3.307866 -4.6088706,-3.2841036 -4.6455788,-3.2598159 -4.6819442,-3.23501 -4.7179621,-3.2096929 -4.753628,-3.1838716 -4.7889373,-3.1575531 -4.8238855,-3.1307444 -4.8584679,-3.1034525 -4.8926801,-3.0756845 -4.9265174,-3.0474474 -4.9930493,-2.9895937 -5.0580271,-2.9299477 -5.1214143,-2.8685655 -5.1831739,-2.8055034 -5.2432577,-2.7408293 -5.3016466,-2.6746108 -5.3583345,-2.6069107 -5.4133151,-2.5377921 -5.4665822,-2.467318 -5.5181296,-2.3955515 -5.5679512,-2.3225554 -5.6160406,-2.2483928 -5.6623918,-2.1731268 -5.7069984,-2.0968202 -5.7498544,-2.0195362 -5.7909534,-1.9413377 -5.8302894,-1.8622877 -5.867856,-1.7824492 -5.9036471,-1.7018853 -5.9376565,-1.6206589 -5.9698596,-1.5388823 -6.0000786,-1.4571148 -6.0283068,-1.3755289 -6.0545902,-1.294164 -6.0789746,-1.2130592 -6.101506,-1.1322537 -6.1222302,-1.0517869 -6.1411931,-0.971698 -6.1584407,-0.8920262 -6.1740187,-0.8128108 -6.1879732,-0.7340911 -6.2003499,-0.6559061 -6.2111949,-0.5782954 -6.2205539,-0.5012979 -6.2284729,-0.4249531 -6.2349978,-0.3493002 -6.2401744,-0.2743784 -6.2440488,-0.2002269 -6.2466666,-0.126885 -6.2480739,-0.054392 -6.2483166,0.0172129 -6.2474404,0.0878905 -6.2454658,0.1583064 -6.24233,0.2298481 -6.2379738,0.3025063 -6.2323388,0.3762293 -6.2253666,0.4509656 -6.2169988,0.5266638 -6.2071772,0.6032722 -6.1958432,0.6807395 -6.1829386,0.759014 -6.1684049,0.8380443 -6.1521838,0.9177789 -6.1342169,0.9981661 -6.1144458,1.0791547 -6.0928122,1.1606929 -6.0692576,1.2427293 -6.0437238,1.3252124 -6.0161523,1.4080907 -5.9864848,1.4913127 -5.9546628,1.5748268 -5.9206281,1.6585815 -5.8844526,1.7422266 -5.8463718,1.8251148 -5.806403,1.907163 -5.7645569,1.9883032 -5.7208441,2.0684677 -5.6752755,2.1475886 -5.6278618,2.2255981 -5.5786137,2.3024284 -5.527542,2.3780116 -5.4746574,2.4522799 -5.4199707,2.5251656 -5.3634925,2.5966006 -5.3052337,2.6665174 -5.245205,2.7348479 -5.2145303,2.7683971 -5.1834188,2.8015226 -5.152035,2.834048 -5.1204945,2.8658655 -5.0888083,2.8969816 -5.0569875,2.9274026 -5.0250431,2.957135 -4.9929863,2.9861852 -4.960828,3.0145596 -4.9285793,3.0422647 -4.8962513,3.0693068 -4.863855,3.0956924 -4.8314015,3.1214279 -4.7989018,3.1465197 -4.7663671,3.1709742 -4.7338082,3.1947978 -4.7012363,3.2179971 -4.6686625,3.2405783 -4.6360978,3.2625479 -4.6035532,3.2839123 -4.5385687,3.3248514 -4.4737975,3.3634467 -4.409328,3.3997496 -4.3452487,3.4338116 -4.2816479,3.465684 -4.2181702,3.4956268 -4.1851015,3.5105161 -4.1508296,3.5254389 -4.1153619,3.5403385 -4.0787059,3.5551582 -4.0408689,3.5698412 -4.0018585,3.5843308 -3.961682,3.5985702 -3.9203469,3.6125028 -3.8778607,3.6260718 -3.8342307,3.6392205 -3.7894644,3.651892 -3.7435693,3.6640298 -3.6965527,3.675577 -3.6484222,3.6864769 -3.599185,3.6966729 -3.5488488,3.706108 -3.4974209,3.7147257 -3.4449087,3.7224692 -3.3913198,3.7292817 -3.3366614,3.7351066 -3.2809411,3.739887 -3.2241663,3.7435663 -3.2241663,3.7435663 -3.1491939,3.7465899 -3.0741663,3.7475305 3.0758337,3.7475305z" transform="matrix(1,0,0,-1,6.2483166,3.7475305)" fill="rgb(0,0,0)" shaper:cutDepth="0.1cm" stroke-linecap="round" stroke-linejoin="round" /><path d="M-1.9700646,-2.8937292 L-1.9700646,-2.8937292 -1.9121369,-2.8597437 -1.8549389,-2.8240113 -1.7984991,-2.786563 -1.7428463,-2.7474295 -1.6880093,-2.7066415 -1.6340166,-2.6642297 -1.5808971,-2.6202251 -1.5286794,-2.5746582 -1.4773923,-2.5275599 -1.4270643,-2.4789609 -1.3777243,-2.4288921 -1.3294009,-2.3773841 -1.2821229,-2.3244677 -1.2359188,-2.2701737 -1.1908176,-2.2145329 -1.1468477,-2.1575759 -1.104038,-2.0993337 -1.0624172,-2.0398368 -1.0220139,-1.9791162 -0.9828568,-1.9172025 -0.9449747,-1.8541266 -0.9083963,-1.7899192 -0.8731474,-1.7246245 -0.8392433,-1.6582913 -0.8066968,-1.590963 -0.7755208,-1.5226834 -0.7457282,-1.453496 -0.7173317,-1.3834443 -0.6903443,-1.3125719 -0.6647788,-1.2409225 -0.640648,-1.1685396 -0.6179648,-1.0954667 -0.596742,-1.0217474 -0.5769926,-0.9474253 -0.5587292,-0.8725441 -0.5419648,-0.7971472 -0.5267123,-0.7212782 -0.5129845,-0.6449807 -0.5007942,-0.5682984 -0.4901542,-0.4912746 -0.4810775,-0.4139531 -0.4735769,-0.3363776 -0.4676612,-0.2586004 -0.4633276,-0.1806726 -0.4605712,-0.1026401 -0.4593871,-0.0245488 -0.4597703,0.0535553 -0.4617159,0.1316264 -0.4652191,0.2096184 -0.4702749,0.2874855 -0.4768783,0.3651818 -0.4850245,0.4426612 -0.4947086,0.519878 -0.5059256,0.5967861 -0.5186706,0.6733397 -0.5329387,0.7494928 -0.548725,0.8251995 -0.5660245,0.9004139 -0.5848324,0.97509 -0.6051437,1.049182 -0.6269535,1.1226438 -0.6502562,1.1954285 -0.6750358,1.267485 -0.7012706,1.3387729 -0.7289393,1.409254 -0.7580205,1.4788899 -0.7884928,1.5476423 -0.8203346,1.6154729 -0.8535247,1.6823432 -0.8880415,1.7482151 -0.9238638,1.81305 -0.96097,1.8768098 -0.9993388,1.939456 -1.0389487,2.0009503 -1.0797783,2.0612544 -1.1218062,2.1203299 -1.1650111,2.1781385 -1.2093714,2.2346419 -1.2548658,2.2898017 -1.3014729,2.3435796 -1.3491711,2.3959372 -1.3979327,2.4468349 -1.4477223,2.4962444 -1.4985063,2.544143 -1.5502507,2.5905077 -1.6029218,2.6353155 -1.6564858,2.6785438 -1.7109087,2.7201695 -1.7661568,2.7601698 -1.8221963,2.7985217 -1.8789934,2.8352026 -1.9365142,2.8701894 -1.9947249,2.9034592 -2.0535916,2.9349893 -2.1130807,2.9647566 -2.1731581,2.9927384 -2.2337902,3.0189118 -2.2949431,3.0432538 -2.356583,3.0657416 -2.4186759,3.0863523 -2.481179,3.1050646 -2.5440494,3.1218729 -2.6072475,3.1367761 -2.6707337,3.1497727 -2.7344685,3.1608617 -2.7984124,3.1700417 -2.8625258,3.1773116 -2.9267691,3.1826699 -2.9911028,3.1861156 -3.0554873,3.1876472 -3.1198832,3.1872637 -3.1842507,3.1849636 -3.2485505,3.1807459 -3.3127429,3.1746091 -3.3767883,3.1665522 -3.4406473,3.1565737 -3.5042803,3.1446725 -3.5676477,3.1308473 -3.6307095,3.115097 -3.6934186,3.0974305 -3.7557362,3.0778682 -3.8176278,3.0564315 -3.8790587,3.0331412 -3.9399941,3.0080186 -4.0003994,2.9810848 -4.0602399,2.9523608 -4.1194809,2.9218678 -4.1780877,2.8896269 -4.2360257,2.8556592 -4.2932601,2.8199858 -4.3497562,2.7826278 -4.4054794,2.7436063 -4.4603949,2.7029425 -4.5144681,2.6606573 -4.5676644,2.6167721 -4.6199489,2.5713077 -4.671287,2.5242855 -4.7216441,2.4757264 -4.7709847,2.4256565 -4.8192793,2.3741154 -4.8665052,2.3211406 -4.9126398,2.2667693 -4.9576603,2.2110388 -5.0015442,2.1539864 -5.0442687,2.0956494 -5.0858113,2.0360652 -5.1261492,1.975271 -5.1652597,1.9133041 -5.2031203,1.8502018 -5.2397083,1.7860014 -5.2750009,1.7207402 -5.3089756,1.6544556 -5.3416097,1.5871847 -5.3728805,1.518965 -5.4027653,1.4498336 -5.4312415,1.379828 -5.4582865,1.3089854 -5.4838774,1.237347 -5.5079994,1.1649631 -5.5306459,1.0918797 -5.55181,1.0181423 -5.5714853,0.9437965 -5.5896649,0.868888 -5.6063423,0.7934623 -5.6215107,0.717565 -5.6351636,0.6412418 -5.6472942,0.5645383 -5.657896,0.4875 -5.6669621,0.4101725 -5.6744861,0.3326015 -5.6804612,0.2548326 -5.6848807,0.1769113 -5.6877381,0.0988833 -5.6890265,0.0207941 -5.6887395,-0.0573106 -5.6868703,-0.1353852 -5.6834126,-0.2133834 -5.6783701,-0.2912519 -5.6717532,-0.3689436 -5.6635719,-0.4464138 -5.6538363,-0.5236179 -5.6425567,-0.6005111 -5.6297432,-0.6770488 -5.6154059,-0.7531863 -5.5995548,-0.828879 -5.5822003,-0.9040821 -5.5633523,-0.978751 -5.5430211,-1.0528409 -5.5212168,-1.1263073 -5.4979494,-1.1991053 -5.4732292,-1.2711905 -5.4470662,-1.3425179 -5.4194707,-1.4130431 -5.3904526,-1.4827212 -5.360023,-1.5515065 -5.3282014,-1.619352 -5.2950126,-1.6862208 -5.2604811,-1.7520777 -5.2246317,-1.816887 -5.187489,-1.8806135 -5.1490776,-1.9432215 -5.1094222,-2.0046758 -5.0685476,-2.0649407 -5.0264782,-2.1239808 -4.9832389,-2.1817607 -4.9388542,-2.238245 -4.8933488,-2.2933981 -4.8467473,-2.3471846 -4.7990745,-2.3995691 -4.750355,-2.450516 -4.7006135,-2.49999 -4.6498745,-2.5479556 -4.5981631,-2.5943773 -4.5455135,-2.6392249 -4.4919624,-2.6824769 -4.4375448,-2.7241122 -4.3822956,-2.7641103 -4.3262497,-2.8024502 -4.2694421,-2.8391112 -4.2119076,-2.8740725 -4.1536812,-2.9073132 -4.0947978,-2.9388125 -4.0352924,-2.9685496 -3.9751998,-2.9965038 -3.914555,-3.0226542 -3.8533929,-3.04698 -3.7917485,-3.0694604 -3.7296566,-3.0900746 -3.6671545,-3.1088007 -3.6042847,-3.1256255 -3.541087,-3.1405467 -3.4776009,-3.1535623 -3.4138661,-3.1646704 -3.349922,-3.1738689 -3.2858083,-3.1811557 -3.2215647,-3.1865289 -3.1572305,-3.1899864 -3.0928455,-3.1915262 -3.0284493,-3.1911464 -2.9640813,-3.1888448 -2.8997812,-3.1846195 -2.8355887,-3.1784684 -2.7715431,-3.1703896 -2.7076843,-3.1603809 -2.6440516,-3.1484405 -2.5806858,-3.1345751 -2.5176267,-3.1188069 -2.4549118,-3.101151 -2.3925784,-3.0816222 -2.3306639,-3.0602354 -2.2692055,-3.0370054 -2.2082408,-3.0119472 -2.147807,-2.9850756 -2.0879414,-2.9564054 -2.0286815,-2.9259517 -1.9700646,-2.8937292z" transform="matrix(1,0,0,-1,6.2483166,3.7475305)" fill="rgb(255,255,255)" stroke="rgb(0,0,0)" stroke-width="0.0010cm" stroke-linecap="round" stroke-linejoin="round" shaper:cutDepth="0.1cm" /><path d="M1.9717321,-2.8937292 L1.9717321,-2.8937292 2.0303518,-2.9259384 2.0896195,-2.9563558 2.1494966,-2.9849721 2.2099444,-3.0117779 2.2709244,-3.0367638 2.332398,-3.0599204 2.3943266,-3.0812384 2.4566715,-3.1007085 2.5193943,-3.1183211 2.5824564,-3.134067 2.645819,-3.1479367 2.7094438,-3.159921 2.7732919,-3.1700103 2.837325,-3.1781954 2.9015043,-3.1844669 2.9657913,-3.1888153 3.0301474,-3.1912314 3.0945341,-3.1917057 3.1589126,-3.1902288 3.2232445,-3.1867914 3.2874851,-3.1813884 3.351587,-3.1740312 3.4155129,-3.1647346 3.4792255,-3.1535132 3.5426876,-3.1403817 3.605862,-3.1253547 3.6687114,-3.1084471 3.7311987,-3.0896733 3.7932865,-3.0690481 3.8549377,-3.0465863 3.916115,-3.0223023 3.9767812,-2.9962111 4.0368991,-2.9683271 4.0964315,-2.9386651 4.1553411,-2.9072398 4.2135906,-2.8740659 4.271143,-2.8391579 4.3279609,-2.8025307 4.384007,-2.7641988 4.4392439,-2.7241776 4.4936321,-2.6824945 4.5471422,-2.639184 4.5997478,-2.5942795 4.6514223,-2.5478145 4.7021391,-2.4998222 4.7518715,-2.450336 4.8005931,-2.3993894 4.8482772,-2.3470156 4.8948972,-2.2932482 4.9404266,-2.2381204 4.9848387,-2.1816657 5.028107,-2.1239174 5.070205,-2.0649089 5.1111059,-2.0046735 5.1507833,-1.9432448 5.1892105,-1.880656 5.226361,-1.8169405 5.2622082,-1.7521317 5.2967255,-1.686263 5.329886,-1.6193693 5.3616667,-1.5514979 5.3920557,-1.4826944 5.421042,-1.4130032 5.4486145,-1.3424686 5.4747622,-1.2711349 5.4994742,-1.1990465 5.5227395,-1.1262476 5.5445472,-1.0527827 5.5648861,-0.9786959 5.5837453,-0.9040318 5.6011138,-0.8288345 5.6169807,-0.7531484 5.631335,-0.6770179 5.6441656,-0.6004872 5.6554616,-0.5236007 5.6652119,-0.4464027 5.6734057,-0.3689376 5.6800318,-0.2912497 5.6850794,-0.2133832 5.6885381,-0.1353852 5.6904074,-0.0573106 5.6906941,0.0207939 5.6894047,0.0988828 5.6865461,0.1769104 5.682125,0.2548313 5.6761482,0.3325997 5.6686224,0.4101702 5.6595545,0.4874972 5.6489511,0.5645351 5.636819,0.6412383 5.623165,0.7175612 5.6079958,0.7934583 5.5913182,0.8688839 5.5731389,0.9437926 5.5534648,1.0181387 5.5323025,1.0918767 5.5096589,1.1649609 5.4855406,1.2373458 5.4599545,1.3089859 5.432913,1.3798312 5.4044388,1.4498384 5.3745549,1.5189703 5.3432841,1.5871897 5.3106492,1.6544596 5.2766729,1.7207427 5.2413783,1.7860019 5.2047879,1.8502001 5.1669248,1.9133001 5.1278117,1.9752648 5.0874715,2.0360569 5.0459269,2.0956395 5.0032009,2.1539752 4.9593162,2.211027 4.9142956,2.2667577 4.8681621,2.3211302 4.8209383,2.3741073 4.7726473,2.4256519 4.7233117,2.4757267 4.6729586,2.5242936 4.6216242,2.5713232 4.569343,2.6167945 4.5161498,2.6606862 4.4620792,2.702977 4.4071659,2.7436459 4.3514445,2.7826716 4.2949498,2.820033 4.2377162,2.8557088 4.1797787,2.8896778 4.1211717,2.9219189 4.06193,2.9524108 4.0020882,2.9811324 3.941681,3.0080625 3.8807431,3.0331798 3.8193091,3.0564632 3.7574137,3.0778915 3.6950915,3.0974434 3.6323774,3.1150979 3.5693146,3.130836 3.5059466,3.1446545 3.442313,3.1565537 3.3784533,3.1665343 3.3144071,3.1745966 3.2502141,3.1807412 3.1859137,3.1849687 3.1215455,3.1872795 3.0571492,3.1876742 2.9927643,3.1861533 2.9284304,3.1827172 2.864187,3.1773665 2.8000738,3.1701017 2.7361303,3.1609233 2.6723961,3.1498319 2.6089108,3.1368279 2.5457139,3.1219118 2.482845,3.1050842 2.4203458,3.0863471 2.3582619,3.0657165 2.2966283,3.0432147 2.2354792,3.0188639 2.1748486,2.9926863 2.1147708,2.9647042 2.0552799,2.9349399 1.9964101,2.9034155 1.9381954,2.8701533 1.88067,2.8351756 1.823868,2.7985045 1.7678237,2.7601624 1.7125711,2.7201714 1.6581445,2.6785538 1.6045778,2.6353318 1.5519053,2.5905277 1.5001612,2.5441637 1.4493794,2.496262 1.3995943,2.4468449 1.3508402,2.3959357 1.3031486,2.3435716 1.2565429,2.2897917 1.2110453,2.2346335 1.166678,2.1781349 1.1234634,2.1203334 1.0814236,2.0612667 1.0405808,2.0009726 1.0009575,1.9394887 0.9625757,1.8768527 0.9254577,1.8131023 0.8896258,1.7482751 0.8551023,1.6824088 0.8219093,1.6155412 0.7900691,1.5477099 0.7596039,1.4789526 0.7305361,1.4093069 0.7028878,1.3388105 0.6766814,1.2675015 0.6519381,1.1954258 0.6286675,1.1226313 0.6068762,1.0491637 0.5865713,0.9750685 0.5677593,0.9003912 0.550447,0.8251776 0.5346413,0.7494732 0.5203489,0.6733236 0.5075765,0.5967744 0.4963309,0.5198711 0.4866189,0.4426594 0.4784473,0.3651848 0.4718228,0.287493 0.4667522,0.2096296 0.4632422,0.13164 0.4612996,0.05357 0.4609313,-0.0245348 0.4621439,-0.102629 0.4649437,-0.1806664 0.4693265,-0.258595 0.4752823,-0.3363675 0.4828019,-0.4139388 0.4918764,-0.491264 0.5024967,-0.5682979 0.5146536,-0.6449956 0.5283381,-0.7213118 0.5435411,-0.7972017 0.5602536,-0.8726201 0.5784665,-0.9475219 0.5981706,-1.0218622 0.6193571,-1.0955957 0.6420166,-1.1686776 0.6661403,-1.2410628 0.6917189,-1.3127061 0.7187435,-1.3835624 0.7472014,-1.4535831 0.7770709,-1.5227272 0.8083294,-1.5909574 0.840954,-1.6582365 0.8749219,-1.7245273 0.9102102,-1.7897926 0.9467962,-1.8539952 0.9846571,-1.9170979 1.02377,-1.9790634 1.0641121,-2.0398546 1.1056606,-2.0994342 1.1483928,-2.1577651 1.1922856,-2.2148099 1.2373165,-2.2705315 1.2834625,-2.3248928 1.3307008,-2.3778564 1.3790087,-2.4293851 1.4283575,-2.4794462 1.4787099,-2.5280159 1.5300336,-2.5750683 1.5822965,-2.6205771 1.6354664,-2.6645164 1.6895112,-2.70686 1.7443986,-2.7475818 1.8000965,-2.7866557 1.8565729,-2.8240556 1.9137954,-2.8597555 1.9717321,-2.8937292z" transform="matrix(1,0,0,-1,6.2483166,3.7475305)" fill="rgb(255,255,255)" stroke="rgb(0,0,0)" stroke-width="0.0010cm" stroke-linecap="round" stroke-linejoin="round" shaper:cutDepth="0.1cm" /></svg>